<svg xmlns="http://www.w3.org/2000/svg" viewBox="0 0 397.67 91.61"><defs><style>.cls-1{fill:#76777a;}.cls-2{fill:#ff8300;}</style></defs><g id="Capa_2" data-name="Capa 2"><g id="Layer_1" data-name="Layer 1"><path class="cls-1" d="M366.18,24.9H344.44V22.59a10.91,10.91,0,1,0-8.44,0V24.9H314.26v8.44h19.31L318.86,61.15l9.44.11,12-22.66,12,22.66,9.21,0L347,33.34h19.18Z"/><path class="cls-2" d="M364.74,23.3H343V21a10.91,10.91,0,1,0-8.44,0V23.3H312.84v8.43h19.29L317.37,59.6l9.49.07,12-22.67,12,22.67,9.2,0-14.49-28h19.18Z"/><path class="cls-1" d="M394.31,53.5a10,10,0,0,1-2.77,3.36,12,12,0,0,1-4.24,2.07,21,21,0,0,1-5.41.69,24.74,24.74,0,0,1-4.33-.3,16.55,16.55,0,0,1-3-.74,9.25,9.25,0,0,1-1.78-.79,2.38,2.38,0,0,0-.75-.36c-.11,0-.33.21-.67.62s-.65.82-.93,1.19H370L369.8,49h.48a15.44,15.44,0,0,0,1.2,2.7,21.24,21.24,0,0,0,1.58,2.47,13.82,13.82,0,0,0,1.81,2,9.14,9.14,0,0,0,1.84,1.34,17.45,17.45,0,0,0,2.32.92,9.38,9.38,0,0,0,2.79.45A9.05,9.05,0,0,0,388,56.79a7.11,7.11,0,0,0,2.36-5.65,6.51,6.51,0,0,0-.47-2.52,6.1,6.1,0,0,0-1.28-1.87,7.75,7.75,0,0,0-1.88-1.36,20.53,20.53,0,0,0-2.32-1c-.83-.31-1.55-.57-2.17-.77s-1.2-.4-1.73-.59l-1.66-.56c-.57-.19-1.24-.43-2-.74a11.46,11.46,0,0,1-2.59-1.4,10.89,10.89,0,0,1-3.68-4.78,8.55,8.55,0,0,1-.57-3.12,10.75,10.75,0,0,1,1-4.79,9.64,9.64,0,0,1,2.7-3.35,11.12,11.12,0,0,1,3.94-2,16.91,16.91,0,0,1,4.71-.66,17.42,17.42,0,0,1,4,.37,15.8,15.8,0,0,1,2.7.85,8.69,8.69,0,0,1,1.6.84,4.35,4.35,0,0,0,.61.39c.09,0,.31-.21.63-.62s.62-.84.9-1.25h.56l0,9.52h-.56a21,21,0,0,0-1.6-3.36,14.89,14.89,0,0,0-2.29-3,11.35,11.35,0,0,0-2.94-2.13,8.12,8.12,0,0,0-3.65-.81,9.54,9.54,0,0,0-3,.47,7.17,7.17,0,0,0-2.47,1.41,6.28,6.28,0,0,0-1.64,2.29,7.86,7.86,0,0,0-.58,3.12,5.93,5.93,0,0,0,1.66,4.37,11.8,11.8,0,0,0,4.29,2.61c.68.28,1.33.52,1.93.72l1.77.59c.59.18,1.18.38,1.79.58s1.23.42,1.88.67A11.87,11.87,0,0,1,393.35,43a9.47,9.47,0,0,1,1.94,6.09,9.32,9.32,0,0,1-1,4.43"/><path class="cls-1" d="M117.53,27.15a4.49,4.49,0,0,0-1.66,2.15,7.44,7.44,0,0,0-.27,1.14c-.08.53-.14,1.14-.21,1.83s-.1,1.44-.14,2.22,0,1.56,0,2.3c0,1.43-.06,3-.11,4.78s-.08,3.75-.15,6c0,.63-.07,1.42-.12,2.39a16.77,16.77,0,0,1-.45,3.06,13.75,13.75,0,0,1-1.26,3.23,9.94,9.94,0,0,1-2.45,2.94,11.91,11.91,0,0,1-4.07,2.1,20.89,20.89,0,0,1-6.11.79,21.52,21.52,0,0,1-6-.71,12.37,12.37,0,0,1-4-2,10,10,0,0,1-2.47-2.78,13.18,13.18,0,0,1-1.29-3,11.11,11.11,0,0,1-.51-2.67c-.06-.82-.07-1.42-.09-1.83,0-.92,0-2.13,0-3.62v-5l0-6.61c0-.59,0-1.19,0-1.78a14.5,14.5,0,0,0-.07-1.67A11.84,11.84,0,0,0,85.71,29a2.37,2.37,0,0,0-.44-1,3.85,3.85,0,0,0-1.72-1.21,10.86,10.86,0,0,0-2.32-.52v-.49l14.81,0v.49c-.47.07-1,.18-1.49.31a4.54,4.54,0,0,0-1.44.63A3.55,3.55,0,0,0,92,28.38a4,4,0,0,0-.48,1.89c0,.85-.06,1.62-.07,2.29s0,1.31,0,1.93v2c0,.65,0,1.44,0,2.33,0,1.13,0,2.14,0,3v2.53c0,.76,0,1.51,0,2.2s0,1.48,0,2.27a15.59,15.59,0,0,0,.81,4.79,10.84,10.84,0,0,0,2.1,3.68,9,9,0,0,0,3.29,2.32,11.08,11.08,0,0,0,4.43.81,15.2,15.2,0,0,0,4.8-.66,9.48,9.48,0,0,0,3.28-1.8,8.85,8.85,0,0,0,2.08-2.65,13.16,13.16,0,0,0,1.14-3.17,22.32,22.32,0,0,0,.47-3.46c.08-1.18.13-2.33.13-3.46,0-.89,0-1.7,0-2.43s0-1.41,0-2V38.85c0-.67,0-1.35,0-2l0-2q0-1.05-.09-2c0-.65-.08-1.23-.15-1.77a5.43,5.43,0,0,0-.3-1.31,4.64,4.64,0,0,0-1.73-2.27,8.68,8.68,0,0,0-3.6-1.21v-.49l12.32,0v.5a7.21,7.21,0,0,0-2.91.95"/><path class="cls-1" d="M151.65,61.38v-.54a8,8,0,0,0,3.57-.91,4.42,4.42,0,0,0,1.93-1.84,6.17,6.17,0,0,0,.45-1.62,18.31,18.31,0,0,0,.19-2c.06-2.19.08-4.28.08-6.26s0-4,0-6.17l0-14.06-3,6.76c-.9,2.07-1.8,4.07-2.69,6s-1.78,3.95-2.69,6-1.9,4.29-3,6.73c-.15.34-.38.85-.69,1.59s-.59,1.43-.88,2.18-.57,1.43-.84,2-.43,1-.49,1.21h-.3c-1.06-2.44-2.13-4.87-3.18-7.28s-2.08-4.75-3.08-7S135.06,42,134.2,40s-1.67-3.68-2.35-5.19S130.56,32,130.11,31l-.92-2.09c0,2.2,0,4.12,0,5.79s0,3.33,0,5,0,3.38,0,5.2,0,4,0,6.36c0,1.55.05,2.91.16,4.05a8.2,8.2,0,0,0,.74,2.88A4.33,4.33,0,0,0,131.9,60a9.37,9.37,0,0,0,3.36,1v.49l-13,.06V61a8.64,8.64,0,0,0,2.83-1,4.93,4.93,0,0,0,1.74-1.85,9.65,9.65,0,0,0,.92-3,30.86,30.86,0,0,0,.35-4.31c0-1.42.1-3.09.12-5s0-4,0-6.23c0-1,0-1.78,0-2.45V33.28q0-1-.06-2.43a4.51,4.51,0,0,0-.61-2.26,4.12,4.12,0,0,0-1.29-1.36,5.3,5.3,0,0,0-1.59-.72,14.22,14.22,0,0,0-1.45-.32v-.5l10.59,0,12,27c1.44-3.16,2.87-6.29,4.24-9.4s2.62-5.95,3.73-8.47,2-4.62,2.71-6.3,1.11-2.64,1.21-2.9l10.57,0V26a5.39,5.39,0,0,0-3.1.87,4,4,0,0,0-1.46,1.88,10.14,10.14,0,0,0-.39,2.65c-.06,1.19-.11,2.36-.14,3.51,0,1.59,0,3.14,0,4.63s0,3,0,4.52c0,1.79,0,3.58,0,5.37s0,3.61,0,5.57a17.85,17.85,0,0,0,.13,1.91,4.54,4.54,0,0,0,.43,1.52c0,.06.16.22.37.47a5.6,5.6,0,0,0,.92.79,6.55,6.55,0,0,0,1.5.74,7.09,7.09,0,0,0,2.08.37v.49Z"/><path class="cls-1" d="M192.34,61.25v-.49a5.65,5.65,0,0,0,.72-.1,5.79,5.79,0,0,0,1.18-.35,3.36,3.36,0,0,0,1.1-.71,1.48,1.48,0,0,0,.47-1.14,7.48,7.48,0,0,0-.28-1.47c-.18-.67-.44-1.5-.78-2.47s-.73-2.05-1.15-3.26-.91-2.42-1.4-3.72L179,47.59c-.49,1.26-1,2.47-1.43,3.61l-1.39,3.45a13,13,0,0,0-1,3.78,1.52,1.52,0,0,0,.41,1.06,3.13,3.13,0,0,0,1,.7,6,6,0,0,0,1.35.4l1.37.22v.49l-10.58,0V60.8a5.94,5.94,0,0,0,2.2-.71,4.57,4.57,0,0,0,1.06-.75,10.86,10.86,0,0,0,1.15-1.65A33.62,33.62,0,0,0,175,53.85c.69-1.56,1.46-3.32,2.31-5.32s1.75-4,2.65-6.14,1.8-4.23,2.69-6.37,1.73-4.13,2.52-6l-.51-1.09a7.87,7.87,0,0,0,1.62-1,9.26,9.26,0,0,0,1.26-1.14,8.77,8.77,0,0,0,.91-1.15,8.21,8.21,0,0,0,.57-.89h.39c1,2.75,2,5.35,3,7.82s1.84,4.84,2.69,7.13,1.68,4.48,2.48,6.62,1.6,4.25,2.4,6.33c.38,1,.72,1.88,1,2.55s.68,1.45,1.07,2.31a4.66,4.66,0,0,0,.47.69,5.67,5.67,0,0,0,2.32,1.93,5.15,5.15,0,0,0,2,.45v.6Zm-6.61-30.09c-.19.44-.48,1.11-.87,2s-.84,2.06-1.39,3.39-1.18,2.82-1.85,4.5-1.41,3.5-2.19,5.45l12.36,0c-.56-1.5-1.13-3-1.72-4.47s-1.15-2.91-1.71-4.29-1.05-2.63-1.5-3.78-.83-2.07-1.13-2.8"/><path class="cls-1" d="M244.23,26.76a4.33,4.33,0,0,0-1.71,2.14,8.5,8.5,0,0,0-.44,2.76C242,33,242,34.43,241.9,36s-.11,3.11-.15,5-.07,4-.06,6.23c0,.93,0,2,0,3.19s0,2.34,0,3.55,0,2.41,0,3.61,0,2.27,0,3.23a.35.35,0,0,1-.12.31.46.46,0,0,1-.38.14,1.4,1.4,0,0,1-.9-.5c-2.83-3.24-5.38-6.21-7.72-8.92L226,44.09c-2.11-2.46-4.17-4.87-6.21-7.22s-4.16-4.78-6.42-7.28l.06,21c0,1.68.06,3.22.13,4.58a8.62,8.62,0,0,0,.64,3,3.62,3.62,0,0,0,1.72,1.71,10.8,10.8,0,0,0,3.2.81v.49l-12.23,0v-.5a10.7,10.7,0,0,0,2.39-.63,3.9,3.9,0,0,0,1.87-1.58,6.71,6.71,0,0,0,.89-3.08c.13-1.36.23-3,.28-4.88.08-1.42.1-3.1.14-5s0-4,0-6.22c0-1,0-1.77,0-2.4V35.06c0-.6,0-1.22,0-1.85s0-1.47-.05-2.43a5.77,5.77,0,0,0-.7-2.36,4.79,4.79,0,0,0-1.3-1.44,4.9,4.9,0,0,0-1.61-.74,12.12,12.12,0,0,0-1.67-.31v-.5l10.09,0,23.63,27.48,0-16.91c0-1.33,0-2.59-.06-3.81a8.68,8.68,0,0,0-.47-2.85,4.52,4.52,0,0,0-1.76-2.25,8.91,8.91,0,0,0-3.66-1.21v-.5l12.32,0v.5a7.36,7.36,0,0,0-3,1"/><path class="cls-1" d="M251,61.07v-.48a9.79,9.79,0,0,0,2.32-.68,4.86,4.86,0,0,0,1.81-1.28,1.86,1.86,0,0,0,.37-.85c.08-.37.14-.8.2-1.3s.08-1,.09-1.56,0-1.09,0-1.62,0-1.09,0-1.88,0-1.67,0-2.61,0-1.92,0-2.91,0-2,0-2.88l0-9.69v-1.8c0-.58,0-1.14-.08-1.67a13.08,13.08,0,0,0-.22-1.39,2.4,2.4,0,0,0-.47-1,3.94,3.94,0,0,0-1.71-1.21,10,10,0,0,0-2.31-.52v-.49l14.88-.05v.5a13.72,13.72,0,0,0-2.24.55,3.25,3.25,0,0,0-1.83,1.6,4.86,4.86,0,0,0-.47,2.13c0,.88,0,1.68-.06,2.45s0,1.64,0,2.45,0,1.64,0,2.47V40c0,.86,0,1.8,0,2.83l0,11.23c0,1,0,1.9.05,2.78a3.57,3.57,0,0,0,.46,1.88A3.62,3.62,0,0,0,263.73,60a9.84,9.84,0,0,0,2.35.55V61Z"/><path class="cls-1" d="M305.32,34.47q-.4-.88-1-1.86c-.36-.64-.73-1.24-1.11-1.81s-.76-1.08-1.13-1.56a8,8,0,0,0-.95-1.07,5,5,0,0,0-2.27-1.3,13.82,13.82,0,0,0-3.1-.37c-.63,0-1.17,0-1.64,0s-.93,0-1.39,0H289.5c0,.82,0,1.95,0,3.37s0,2.92,0,4.49,0,3.08,0,4.61,0,2.75,0,3.78l0,11c0,1,0,1.87.09,2.74a3.46,3.46,0,0,0,.48,1.87,3.68,3.68,0,0,0,2.11,1.49,25.19,25.19,0,0,0,2.46.59v.49L278.5,61v-.5A12.68,12.68,0,0,0,281,60a5,5,0,0,0,2.33-1.64,1.79,1.79,0,0,0,.37-.82,10.81,10.81,0,0,0,.19-1.31c.05-.47.08-1,.11-1.56s0-1.11,0-1.63,0-1.08,0-1.85,0-1.61,0-2.53,0-1.89,0-2.88,0-1.94,0-2.83l0-16.45h-3.28l-1.38,0c-.48,0-1,0-1.65,0a11.61,11.61,0,0,0-3.11.45,5.8,5.8,0,0,0-2.24,1.41,6.35,6.35,0,0,0-.93,1c-.35.47-.71,1-1.09,1.52s-.74,1.14-1.08,1.76a10.93,10.93,0,0,0-.82,1.85l-.44-.15L269.45,25c.75.16,1.45.29,2.11.39a25.17,25.17,0,0,0,2.8.2c1.26,0,2.39,0,3.38.06h5.71l3.35,0h3.29l2.87,0,2.89-.07,3.38,0a16.52,16.52,0,0,0,2.71-.28,20.81,20.81,0,0,0,2.2-.6l1.63,9.7Z"/><rect class="cls-1" x="86.52" y="66.71" width="311.14" height="1.56"/><path class="cls-1" d="M126.08,87.83H119.3V87.6a3.18,3.18,0,0,0,1.28-.31,1.25,1.25,0,0,0,.64-1.12,3.27,3.27,0,0,0-.29-1.13l-.17-.43-1-2.44h-4.54l-.53,1.43-.26.64A5.09,5.09,0,0,0,114,86a1.44,1.44,0,0,0,.18.71,1.48,1.48,0,0,0,.45.54,2.24,2.24,0,0,0,1,.33v.23H111V87.6a2.15,2.15,0,0,0,1-.27,2.73,2.73,0,0,0,.8-.77,5.81,5.81,0,0,0,.64-1.08c.21-.45.49-1.11.84-2L118,73.76h.59L123.1,84.6a15.44,15.44,0,0,0,.8,1.75,2.67,2.67,0,0,0,.65.79,1.7,1.7,0,0,0,.57.29,6.4,6.4,0,0,0,1,.17Zm-6.48-6.08-2.16-5.34-2,5.34Z"/><path class="cls-1" d="M134.15,88.18a5.39,5.39,0,0,1-.1-1.09,6,6,0,0,1-1.44.71,4.52,4.52,0,0,1-1.44.22,4,4,0,0,1-2.68-.94,3.83,3.83,0,0,1-1.09-1.5,5.09,5.09,0,0,1-.38-2,5.35,5.35,0,0,1,.41-2.1,4.27,4.27,0,0,1,1.15-1.6,4.18,4.18,0,0,1,2.79-1,3.58,3.58,0,0,1,1.34.22A5.58,5.58,0,0,1,134,80V76.16a2.72,2.72,0,0,0-.38-1.62,1.47,1.47,0,0,0-1.23-.49V73.8l3.16-.4V85.33a2.88,2.88,0,0,0,.37,1.66,1.44,1.44,0,0,0,1.23.49v.26Zm-.14-4.8a13.94,13.94,0,0,0-.13-2.15,2.83,2.83,0,0,0-.44-1.17,2,2,0,0,0-.74-.63,2.19,2.19,0,0,0-1-.23,2.34,2.34,0,0,0-1.9,1,4.65,4.65,0,0,0-.76,1.47,5.83,5.83,0,0,0-.27,1.76,6.06,6.06,0,0,0,.26,1.74,4.72,4.72,0,0,0,.7,1.46,2.27,2.27,0,0,0,1.88,1,2,2,0,0,0,1-.27,2.13,2.13,0,0,0,.78-.74,3.26,3.26,0,0,0,.43-1.22A13.57,13.57,0,0,0,134,83.38Z"/><path class="cls-1" d="M141.2,78.92a7.24,7.24,0,0,1,.24,1.43,4.79,4.79,0,0,1,1.46-1.06,4,4,0,0,1,1.68-.37,2.58,2.58,0,0,1,1.62.49,4.8,4.8,0,0,1,.9,1,5.55,5.55,0,0,1,1.58-1.16,4,4,0,0,1,1.71-.37,3,3,0,0,1,2,.67,2.23,2.23,0,0,1,.78,1.77v4.27a4.1,4.1,0,0,0,.09,1,1,1,0,0,0,.3.54,2.2,2.2,0,0,0,1.07.43v.21H150.1v-.21a2.78,2.78,0,0,0,.88-.23,1.1,1.1,0,0,0,.44-.52,2.27,2.27,0,0,0,.16-.71c0-.32,0-.78,0-1.37v-2a13,13,0,0,0-.08-1.67,2.67,2.67,0,0,0-.27-.89,1.75,1.75,0,0,0-1.67-.88,2,2,0,0,0-1.85,1,4.89,4.89,0,0,0-.51,2.53v2.77a4.1,4.1,0,0,0,.09,1,1,1,0,0,0,.31.54,2.12,2.12,0,0,0,1.07.43v.21h-4.56v-.21a2.7,2.7,0,0,0,.88-.23,1.1,1.1,0,0,0,.44-.52,2,2,0,0,0,.16-.71c0-.32,0-.78,0-1.37V82.88a14.41,14.41,0,0,0-.08-1.76,2.43,2.43,0,0,0-.29-.92,1.57,1.57,0,0,0-.64-.58,2,2,0,0,0-.93-.21,2.25,2.25,0,0,0-1.1.28,2.17,2.17,0,0,0-.81.75,2.93,2.93,0,0,0-.39,1,7.84,7.84,0,0,0-.12,1.52v2.65a4.81,4.81,0,0,0,.08,1,1.06,1.06,0,0,0,.32.54,2.12,2.12,0,0,0,1.06.43v.21h-4.56v-.21a2.7,2.7,0,0,0,.89-.23,1,1,0,0,0,.43-.51,2.14,2.14,0,0,0,.16-.72,12.4,12.4,0,0,0,.05-1.38V82.24c0-.71,0-1.2-.05-1.49a1.65,1.65,0,0,0-.23-.69,1.06,1.06,0,0,0-.42-.42,1.91,1.91,0,0,0-.71-.16v-.21Z"/><path class="cls-1" d="M155.78,79.29l3-.37v6.72a5,5,0,0,0,.08,1,1.15,1.15,0,0,0,.32.54,2.27,2.27,0,0,0,1.06.42v.21h-4.55v-.21a2.86,2.86,0,0,0,.89-.23,1.11,1.11,0,0,0,.43-.51,2.42,2.42,0,0,0,.16-.71c0-.32,0-.78,0-1.38V82.25a12.39,12.39,0,0,0-.06-1.48,1.65,1.65,0,0,0-.22-.69,1.15,1.15,0,0,0-.43-.42,1.91,1.91,0,0,0-.71-.16Zm2.15-4.07a.94.94,0,0,1-.67-.26.89.89,0,0,1-.26-.65.85.85,0,0,1,.27-.64.94.94,0,0,1,1.32,0,.92.92,0,0,1,0,1.29A.94.94,0,0,1,157.93,75.22Z"/><path class="cls-1" d="M164.24,78.92a4.61,4.61,0,0,1,.15,1.12v.16a4.17,4.17,0,0,1,3-1.28,3.38,3.38,0,0,1,2.12.61,2.08,2.08,0,0,1,.8,1.74v4.36a4.22,4.22,0,0,0,.08,1,1.06,1.06,0,0,0,.32.54,2.08,2.08,0,0,0,1.06.43v.21h-4.55v-.21a2.78,2.78,0,0,0,.88-.23,1.1,1.1,0,0,0,.44-.52,2.31,2.31,0,0,0,.15-.71c0-.32.05-.78.05-1.37V82.6A12.64,12.64,0,0,0,168.7,81a2.07,2.07,0,0,0-.29-.85,1.52,1.52,0,0,0-.68-.56,2.38,2.38,0,0,0-1-.2,2.57,2.57,0,0,0-1.07.23,2,2,0,0,0-.79.62,2.32,2.32,0,0,0-.41.92,11.58,11.58,0,0,0-.09,1.73v2.78a4.81,4.81,0,0,0,.08,1,1.06,1.06,0,0,0,.32.54,2.12,2.12,0,0,0,1.06.43v.21h-4.55v-.21a2.86,2.86,0,0,0,.89-.23,1.11,1.11,0,0,0,.43-.51,2.79,2.79,0,0,0,.16-.71c0-.32,0-.78,0-1.38V82.25c0-.7,0-1.19-.05-1.48a1.65,1.65,0,0,0-.22-.69,1.15,1.15,0,0,0-.43-.42,1.91,1.91,0,0,0-.71-.16v-.21Z"/><path class="cls-1" d="M172.94,79.29l3-.37v6.72a5,5,0,0,0,.08,1,1.07,1.07,0,0,0,.32.54,2.22,2.22,0,0,0,1.06.42v.21h-4.56v-.21a2.78,2.78,0,0,0,.89-.23,1.05,1.05,0,0,0,.43-.51,2.13,2.13,0,0,0,.16-.71,12.4,12.4,0,0,0,0-1.38V82.25c0-.7,0-1.19,0-1.48a1.52,1.52,0,0,0-.23-.69,1.2,1.2,0,0,0-.42-.42,1.91,1.91,0,0,0-.71-.16Zm2.15-4.07a.92.92,0,0,1-.67-.26.86.86,0,0,1-.27-.65.83.83,0,0,1,.28-.64.87.87,0,0,1,.66-.27.9.9,0,0,1,.66.27.85.85,0,0,1,.27.64.89.89,0,0,1-.26.65A.94.94,0,0,1,175.09,75.22Z"/><path class="cls-1" d="M179.18,87.83V84.92h.16a5.71,5.71,0,0,0,.72,1.71,2.25,2.25,0,0,0,1.85,1.16A1.72,1.72,0,0,0,183,87.4a1.53,1.53,0,0,0,.52-1.23,1.85,1.85,0,0,0-.37-1.13,2.69,2.69,0,0,0-.52-.48c-.21-.14-.56-.34-1.06-.6a7.24,7.24,0,0,1-1.73-1.16,2.16,2.16,0,0,1-.61-1.52,2.29,2.29,0,0,1,.61-1.6,2.47,2.47,0,0,1,1.89-.76,2.63,2.63,0,0,1,1,.18l.35.16a.88.88,0,0,0,.29.06c.13,0,.26-.11.37-.31H184l.11,2.34h-.21a4.65,4.65,0,0,0-.25-.79,2,2,0,0,0-.36-.58,2.55,2.55,0,0,0-.74-.62,1.88,1.88,0,0,0-.84-.22,1.32,1.32,0,0,0-1,.42,1.46,1.46,0,0,0-.4,1,1.35,1.35,0,0,0,.36.91,3.46,3.46,0,0,0,1.13.75l1.09.49a3.63,3.63,0,0,1,1.46,1.1,2.59,2.59,0,0,1,.49,1.56,2.43,2.43,0,0,1-.71,1.79,2.74,2.74,0,0,1-2.06.83,3.84,3.84,0,0,1-1.38-.27c-.3-.12-.48-.18-.55-.2a.78.78,0,0,0-.24,0,.61.61,0,0,0-.54.31Z"/><path class="cls-1" d="M189.12,79.07h2.62v.39h-2.62v6A2.48,2.48,0,0,0,189.5,87a1.29,1.29,0,0,0,.51.4,1.58,1.58,0,0,0,.69.14,1.44,1.44,0,0,0,.77-.19,2.45,2.45,0,0,0,.67-.69l.16.13a2.19,2.19,0,0,1-1,.92,3.43,3.43,0,0,1-1.52.3,2.69,2.69,0,0,1-1.78-.48,1.1,1.1,0,0,1-.39-.59,5.68,5.68,0,0,1-.09-1.24V79.46h-1.11V79.3a2.8,2.8,0,0,0,1.24-.84,4,4,0,0,0,.55-.75,6,6,0,0,0,.4-1l.1-.34h.38Z"/><path class="cls-1" d="M195.41,80.5a2.93,2.93,0,0,1,.83-1,3.31,3.31,0,0,1,1.95-.6,1.57,1.57,0,0,1,1,.29.85.85,0,0,1,.32.67.67.67,0,0,1-.19.47.7.7,0,0,1-.49.19.79.79,0,0,1-.61-.29l-.32-.35a1.19,1.19,0,0,0-.9-.4c-.46,0-.83.3-1.09.9a6.52,6.52,0,0,0-.39,2.52v2.71a4.81,4.81,0,0,0,.08,1,1.06,1.06,0,0,0,.32.54,2.12,2.12,0,0,0,1.06.43v.21h-4.55v-.21a2.7,2.7,0,0,0,.88-.23,1.07,1.07,0,0,0,.44-.51,2.79,2.79,0,0,0,.16-.71c0-.32,0-.78,0-1.38V82.25a13,13,0,0,0,0-1.48,1.65,1.65,0,0,0-.22-.69,1.15,1.15,0,0,0-.43-.42,1.91,1.91,0,0,0-.71-.16v-.21l2.66-.37A9.31,9.31,0,0,1,195.41,80.5Z"/><path class="cls-1" d="M209.15,86.83l.17.11a1.6,1.6,0,0,1-1.7,1.08,2,2,0,0,1-1.22-.36,2.77,2.77,0,0,1-.66-.83,6.58,6.58,0,0,1-1,.82,3.16,3.16,0,0,1-1.56.37,2.71,2.71,0,0,1-1.8-.55,1.81,1.81,0,0,1-.67-1.47,2.05,2.05,0,0,1,.55-1.44,2.23,2.23,0,0,1,.71-.5,6.7,6.7,0,0,1,1.16-.39c.6-.15,1-.28,1.33-.38a3,3,0,0,0,.72-.37,1.25,1.25,0,0,0,.45-.56,2.58,2.58,0,0,0,.13-.89,2.79,2.79,0,0,0-.46-1.76,1.45,1.45,0,0,0-.53-.41,1.61,1.61,0,0,0-.67-.16,1.31,1.31,0,0,0-.76.22,1.27,1.27,0,0,0-.49.6l-.26.6a.74.74,0,0,1-.74.48.84.84,0,0,1-.59-.23.78.78,0,0,1-.24-.58c0-.35.25-.65.75-.89a4.16,4.16,0,0,1,1-.3,5.88,5.88,0,0,1,1.17-.12,5.81,5.81,0,0,1,1.33.16,4.63,4.63,0,0,1,1.15.42,1.67,1.67,0,0,1,.84,1,5,5,0,0,1,.08,1v3.82a7.4,7.4,0,0,0,.08,1.32.83.83,0,0,0,.85.73,1,1,0,0,0,.5-.11A2,2,0,0,0,209.15,86.83Zm-3.42-4.06a6.67,6.67,0,0,1-1.22.82,8.72,8.72,0,0,0-1,.61,2.66,2.66,0,0,0-.52.49,2.15,2.15,0,0,0-.48,1.39,1.66,1.66,0,0,0,.37,1.12,1.19,1.19,0,0,0,.95.45,1.6,1.6,0,0,0,1-.32,1.92,1.92,0,0,0,.67-.84,4.78,4.78,0,0,0,.32-2Z"/><path class="cls-1" d="M217.35,88.18a5.37,5.37,0,0,1-.11-1.09,5.92,5.92,0,0,1-1.43.71,4.59,4.59,0,0,1-1.45.22,4,4,0,0,1-2.68-.94,3.93,3.93,0,0,1-1.09-1.5,5.09,5.09,0,0,1-.38-2,5.35,5.35,0,0,1,.41-2.1,4.29,4.29,0,0,1,1.16-1.6,4.18,4.18,0,0,1,2.79-1,3.53,3.53,0,0,1,1.33.22,5.38,5.38,0,0,1,1.3.83V76.16a2.72,2.72,0,0,0-.38-1.62,1.46,1.46,0,0,0-1.23-.49V73.8l3.16-.4V85.33a2.8,2.8,0,0,0,.38,1.66,1.42,1.42,0,0,0,1.23.49v.26Zm-.15-4.8a14.21,14.21,0,0,0-.12-2.15,3,3,0,0,0-.44-1.17,2.11,2.11,0,0,0-.75-.63,2.19,2.19,0,0,0-1-.23,2.36,2.36,0,0,0-1.9,1,4.63,4.63,0,0,0-.75,1.47,5.84,5.84,0,0,0-.28,1.76,6.06,6.06,0,0,0,.26,1.74,4.72,4.72,0,0,0,.7,1.46,2.27,2.27,0,0,0,1.89,1,2.08,2.08,0,0,0,1-.27,2.13,2.13,0,0,0,.78-.74,3.65,3.65,0,0,0,.43-1.22A13.82,13.82,0,0,0,217.2,83.38Z"/><path class="cls-1" d="M221.8,83.48a4.22,4.22,0,0,1,1.24-3,4.87,4.87,0,0,1,7.18,0,4.24,4.24,0,0,1,.06,5.93,5,5,0,0,1-7.31,0,4.54,4.54,0,0,1-.87-1.38A4.25,4.25,0,0,1,221.8,83.48Zm1.88-.11a5.43,5.43,0,0,0,.8,3,2.6,2.6,0,0,0,2.21,1.39,2.1,2.1,0,0,0,1.09-.31,2.72,2.72,0,0,0,.9-.86,4.63,4.63,0,0,0,.65-1.45,5.73,5.73,0,0,0,0-3.38,5,5,0,0,0-.71-1.48,2.48,2.48,0,0,0-2.07-1.17,2.41,2.41,0,0,0-2,1.23A5.1,5.1,0,0,0,223.68,83.37Z"/><path class="cls-1" d="M235.85,80.5a3,3,0,0,1,.83-1,3.36,3.36,0,0,1,1.95-.6,1.57,1.57,0,0,1,1,.29.82.82,0,0,1,.32.67.63.63,0,0,1-.19.47.68.68,0,0,1-.49.19.82.82,0,0,1-.61-.29l-.32-.35a1.17,1.17,0,0,0-.89-.4c-.47,0-.83.3-1.1.9a6.71,6.71,0,0,0-.39,2.52v1.93l0,.78a4.22,4.22,0,0,0,.08,1,1,1,0,0,0,.32.54,2.08,2.08,0,0,0,1.06.43v.21H232.9v-.21a2.78,2.78,0,0,0,.89-.23,1.11,1.11,0,0,0,.43-.51,2.13,2.13,0,0,0,.16-.71c0-.32.05-.78.05-1.38V82.25a12.39,12.39,0,0,0-.06-1.48,1.52,1.52,0,0,0-.22-.69,1.15,1.15,0,0,0-.43-.42,1.9,1.9,0,0,0-.7-.16v-.21l2.65-.37A8.39,8.39,0,0,1,235.85,80.5Z"/><path class="cls-1" d="M249.59,86.83l.18.11a1.6,1.6,0,0,1-1.7,1.08,2,2,0,0,1-1.22-.36,2.77,2.77,0,0,1-.66-.83,6.58,6.58,0,0,1-1,.82,3.16,3.16,0,0,1-1.56.37,2.71,2.71,0,0,1-1.8-.55,1.78,1.78,0,0,1-.67-1.47,2,2,0,0,1,.55-1.44,2.23,2.23,0,0,1,.71-.5,6.42,6.42,0,0,1,1.16-.39c.6-.15,1-.28,1.33-.38a3.46,3.46,0,0,0,.72-.37,1.25,1.25,0,0,0,.45-.56,2.61,2.61,0,0,0,.12-.89,2.79,2.79,0,0,0-.45-1.76,1.54,1.54,0,0,0-.53-.41,1.62,1.62,0,0,0-.68-.16,1.3,1.3,0,0,0-.75.22,1.22,1.22,0,0,0-.49.6l-.26.6a.75.75,0,0,1-.74.48.82.82,0,0,1-.59-.23.78.78,0,0,1-.24-.58c0-.35.25-.65.74-.89a4.25,4.25,0,0,1,1-.3,5.68,5.68,0,0,1,2.5,0,4.78,4.78,0,0,1,1.15.42,1.67,1.67,0,0,1,.84,1,5,5,0,0,1,.08,1v3.82a7.4,7.4,0,0,0,.08,1.32.83.83,0,0,0,.85.73,1,1,0,0,0,.5-.11A1.77,1.77,0,0,0,249.59,86.83Zm-3.41-4.06a7,7,0,0,1-1.22.82,8.72,8.72,0,0,0-1,.61,2.66,2.66,0,0,0-.52.49,2.16,2.16,0,0,0-.49,1.39,1.67,1.67,0,0,0,.38,1.12,1.19,1.19,0,0,0,1,.45,1.62,1.62,0,0,0,.95-.32,1.92,1.92,0,0,0,.67-.84,4.78,4.78,0,0,0,.32-2Z"/><path class="cls-1" d="M263.6,88.18a5.37,5.37,0,0,1-.11-1.09,5.75,5.75,0,0,1-1.43.71,4.54,4.54,0,0,1-1.45.22,4,4,0,0,1-3.77-2.44,5.08,5.08,0,0,1-.37-2,5.18,5.18,0,0,1,.41-2.1,4.27,4.27,0,0,1,1.15-1.6,4.18,4.18,0,0,1,2.79-1,3.53,3.53,0,0,1,1.33.22,5.2,5.2,0,0,1,1.3.83V76.16a2.73,2.73,0,0,0-.37-1.62,1.48,1.48,0,0,0-1.24-.49V73.8l3.17-.4V85.33a2.81,2.81,0,0,0,.37,1.66,1.44,1.44,0,0,0,1.23.49v.26Zm-.15-4.8a14.21,14.21,0,0,0-.12-2.15,2.83,2.83,0,0,0-.44-1.17,2,2,0,0,0-.75-.63,2.19,2.19,0,0,0-1-.23,2.33,2.33,0,0,0-1.89,1,4.45,4.45,0,0,0-.76,1.47,5.83,5.83,0,0,0-.27,1.76,6.05,6.05,0,0,0,.25,1.74,5,5,0,0,0,.7,1.46,2.3,2.3,0,0,0,1.89,1,2,2,0,0,0,1-.27,2.13,2.13,0,0,0,.78-.74,3.44,3.44,0,0,0,.43-1.22A13.82,13.82,0,0,0,263.45,83.38Z"/><path class="cls-1" d="M269.89,82.23c0,.33,0,.58,0,.73a6.08,6.08,0,0,0,.26,1.75,4.11,4.11,0,0,0,.71,1.42,3.34,3.34,0,0,0,2.58,1.24,2.84,2.84,0,0,0,1.05-.19,2.24,2.24,0,0,0,.83-.51,2.9,2.9,0,0,0,.64-1.16l.21.08A2.88,2.88,0,0,1,275,87.41a4.06,4.06,0,0,1-2.34.61,5.51,5.51,0,0,1-2.18-.4,3.88,3.88,0,0,1-1.53-1.24,4.6,4.6,0,0,1-.88-2.87,4.4,4.4,0,0,1,1.66-3.63,4.31,4.31,0,0,1,2.75-1,4,4,0,0,1,1.53.29,3.13,3.13,0,0,1,1.94,3Zm4.49-.41a3.85,3.85,0,0,0-.38-1.58,2,2,0,0,0-.74-.8,1.76,1.76,0,0,0-1-.3,2,2,0,0,0-1.55.77,3.34,3.34,0,0,0-.78,1.91Z"/><path class="cls-1" d="M288.2,81V84.6a8.34,8.34,0,0,0,.11,1.56,1.78,1.78,0,0,0,.44.84,2,2,0,0,0,.65.43,3.25,3.25,0,0,0,1,.17v.23h-6.59V87.6a3.39,3.39,0,0,0,1-.17,1.85,1.85,0,0,0,.64-.43,1.71,1.71,0,0,0,.45-.84,8.26,8.26,0,0,0,.11-1.56V77a8.39,8.39,0,0,0-.11-1.57,1.73,1.73,0,0,0-.45-.83,1.71,1.71,0,0,0-.65-.44,3.66,3.66,0,0,0-1-.16v-.24h6.61a8.39,8.39,0,0,1,2.51.43,3.45,3.45,0,0,1,1.58,1.24,3.25,3.25,0,0,1,.56,1.9,3.17,3.17,0,0,1-1.21,2.58,3.71,3.71,0,0,1-.82.47,7,7,0,0,1-1.21.35,2.93,2.93,0,0,1,.92.54,2.45,2.45,0,0,1,.44.54c.13.22.32.6.58,1.15.61,1.26,1.08,2.18,1.39,2.75a7.43,7.43,0,0,0,.79,1.27,1.62,1.62,0,0,0,.5.44,2,2,0,0,0,.66.17v.23h-3.42l-.33-.72-.72-1.64a25.09,25.09,0,0,0-1.31-2.6,5.38,5.38,0,0,0-1.2-1.54,1.67,1.67,0,0,0-.6-.29,3,3,0,0,0-.79-.09Zm0-.23h.39a8.58,8.58,0,0,0,1.83-.14,2.43,2.43,0,0,0,1-.6,3.37,3.37,0,0,0,1.09-2.56,3.78,3.78,0,0,0-.32-1.53,3.16,3.16,0,0,0-.87-1.18,2.53,2.53,0,0,0-1-.49,8.09,8.09,0,0,0-1.7-.14h-.42Z"/><path class="cls-1" d="M297.86,79.29l3-.37v6.72a5,5,0,0,0,.08,1,1.15,1.15,0,0,0,.32.54,2.22,2.22,0,0,0,1.06.42v.21h-4.55v-.21a2.78,2.78,0,0,0,.88-.23,1.07,1.07,0,0,0,.44-.51,2.79,2.79,0,0,0,.16-.71c0-.32,0-.78,0-1.38V82.25c0-.7,0-1.19,0-1.48a1.65,1.65,0,0,0-.22-.69,1.15,1.15,0,0,0-.43-.42,1.91,1.91,0,0,0-.71-.16ZM300,75.22a.94.94,0,0,1-.67-.26.89.89,0,0,1-.26-.65.85.85,0,0,1,.27-.64.94.94,0,0,1,1.32,0,.85.85,0,0,1,.27.64.89.89,0,0,1-.26.65A.94.94,0,0,1,300,75.22Z"/><path class="cls-1" d="M305.57,82.23c0,.33,0,.58,0,.73a6.08,6.08,0,0,0,.26,1.75,4.12,4.12,0,0,0,.72,1.42,3.17,3.17,0,0,0,1.14.91,3.26,3.26,0,0,0,1.43.33,2.93,2.93,0,0,0,1.06-.19,2.12,2.12,0,0,0,.82-.51,2.9,2.9,0,0,0,.64-1.16l.22.08a2.93,2.93,0,0,1-1.15,1.82,4.11,4.11,0,0,1-2.35.61,5.46,5.46,0,0,1-2.17-.4,3.84,3.84,0,0,1-1.54-1.24,4.66,4.66,0,0,1-.87-2.87,4.37,4.37,0,0,1,1.66-3.63,4.29,4.29,0,0,1,2.75-1,4,4,0,0,1,1.52.29,3.1,3.1,0,0,1,1.94,3Zm4.5-.41a3.83,3.83,0,0,0-.39-1.58,2.1,2.1,0,0,0-.73-.8,1.79,1.79,0,0,0-1-.3,2,2,0,0,0-1.54.77,3.41,3.41,0,0,0-.79,1.91Z"/><path class="cls-1" d="M314.14,87.83V84.92h.16a6,6,0,0,0,.72,1.71,2.27,2.27,0,0,0,1.86,1.16A1.72,1.72,0,0,0,318,87.4a1.53,1.53,0,0,0,.51-1.23,1.78,1.78,0,0,0-.37-1.13,2.69,2.69,0,0,0-.52-.48c-.21-.14-.56-.34-1.06-.6a7.12,7.12,0,0,1-1.72-1.16,2.18,2.18,0,0,1-.62-1.52,2.3,2.3,0,0,1,.62-1.6,2.46,2.46,0,0,1,1.89-.76,2.67,2.67,0,0,1,1,.18l.35.16a.79.79,0,0,0,.28.06c.13,0,.26-.11.37-.31h.21l.11,2.34h-.21a5.94,5.94,0,0,0-.24-.79,2.27,2.27,0,0,0-.37-.58,2.43,2.43,0,0,0-.74-.62,1.87,1.87,0,0,0-.83-.22,1.3,1.3,0,0,0-1,.42,1.43,1.43,0,0,0-.41,1,1.35,1.35,0,0,0,.36.91,3.46,3.46,0,0,0,1.13.75l1.09.49a3.63,3.63,0,0,1,1.46,1.1,2.52,2.52,0,0,1,.49,1.56,2.43,2.43,0,0,1-.71,1.79A2.74,2.74,0,0,1,317,88a3.75,3.75,0,0,1-1.37-.27l-.55-.2a.88.88,0,0,0-.24,0,.62.62,0,0,0-.55.31Z"/><path class="cls-1" d="M324,88.71l-.18.05a1.31,1.31,0,0,0-.35-.4.75.75,0,0,0-.43-.11.85.85,0,0,0-.71.33,1.27,1.27,0,0,0-.27.85,1.57,1.57,0,0,0,.83,1.37,4.51,4.51,0,0,0,4.37,0,1.83,1.83,0,0,0,.85-1.55,1.34,1.34,0,0,0-.57-1.16,2.7,2.7,0,0,0-1.62-.41h-1.64a2.61,2.61,0,0,1-1.63-.48A1.49,1.49,0,0,1,322,86a1.31,1.31,0,0,1,.69-1.16,5.81,5.81,0,0,1,1.27-.44,3.49,3.49,0,0,1-1.39-1.09,2.41,2.41,0,0,1-.49-1.48,2.59,2.59,0,0,1,.77-1.85,3.12,3.12,0,0,1,1.07-.76,3.17,3.17,0,0,1,1.27-.26,3.55,3.55,0,0,1,2,.7,3.54,3.54,0,0,1,.88-.54,2.1,2.1,0,0,1,.84-.16,1.45,1.45,0,0,1,.82.21.81.81,0,0,1,.37.66.57.57,0,0,1-.15.4.46.46,0,0,1-.36.16A.77.77,0,0,1,329,80l-.24-.31a.66.66,0,0,0-.56-.25,1.25,1.25,0,0,0-.8.38,3.3,3.3,0,0,1,.84,2.11,2.42,2.42,0,0,1-1.2,2.13,3.63,3.63,0,0,1-1.29.53l-1.31.1c-1,.06-1.52.34-1.52.85s.43.66,1.29.66h1.71a6.61,6.61,0,0,1,1.52.15,3.35,3.35,0,0,1,1.08.5,2.23,2.23,0,0,1,.91,1.89,2.43,2.43,0,0,1-1.05,2.09,5.45,5.45,0,0,1-3.18.78,4.58,4.58,0,0,1-3.2-.91,2,2,0,0,1-.59-1.46,1.61,1.61,0,0,1,.44-1.17,1.42,1.42,0,0,1,1.09-.48,1.08,1.08,0,0,1,.75.27,1,1,0,0,1,.29.74Zm-.44-6.85a3.22,3.22,0,0,0,.47,1.81,1.39,1.39,0,0,0,1.2.7,1.29,1.29,0,0,0,1.15-.69,3.87,3.87,0,0,0,.41-1.93,3.47,3.47,0,0,0-.54-2,1.17,1.17,0,0,0-1-.57,1.37,1.37,0,0,0-1.19.74,3.32,3.32,0,0,0-.35.91A3.93,3.93,0,0,0,323.55,81.86Z"/><path class="cls-1" d="M331,83.48a4.25,4.25,0,0,1,1.23-3,4.83,4.83,0,0,1,3.6-1.58,4.78,4.78,0,0,1,3.59,1.58,4.26,4.26,0,0,1,.06,5.93,5,5,0,0,1-7.31,0,4.35,4.35,0,0,1-.87-1.38A4.25,4.25,0,0,1,331,83.48Zm1.87-.11a5.44,5.44,0,0,0,.81,3,2.6,2.6,0,0,0,2.21,1.39,2.07,2.07,0,0,0,1.08-.31,2.75,2.75,0,0,0,.91-.86,4.63,4.63,0,0,0,.65-1.45,6,6,0,0,0,.25-1.68,5.64,5.64,0,0,0-.27-1.7,4.72,4.72,0,0,0-.7-1.48,2.51,2.51,0,0,0-2.07-1.17,2.41,2.41,0,0,0-2,1.23A5.11,5.11,0,0,0,332.86,83.37Z"/><path class="cls-1" d="M342.8,87.83V84.92H343a5.71,5.71,0,0,0,.72,1.71,2.25,2.25,0,0,0,1.85,1.16,1.72,1.72,0,0,0,1.12-.39,1.53,1.53,0,0,0,.52-1.23A1.79,1.79,0,0,0,346.8,85a2.21,2.21,0,0,0-.52-.48,11.83,11.83,0,0,0-1-.6,7.24,7.24,0,0,1-1.73-1.16,2.16,2.16,0,0,1-.61-1.52,2.29,2.29,0,0,1,.61-1.6,2.47,2.47,0,0,1,1.89-.76,2.63,2.63,0,0,1,1,.18l.35.16a.88.88,0,0,0,.29.06c.13,0,.25-.11.37-.31h.21l.11,2.34h-.21a4.65,4.65,0,0,0-.25-.79,2.23,2.23,0,0,0-.36-.58,2.55,2.55,0,0,0-.74-.62,1.88,1.88,0,0,0-.84-.22,1.32,1.32,0,0,0-1,.42,1.42,1.42,0,0,0-.4,1,1.35,1.35,0,0,0,.36.91,3.46,3.46,0,0,0,1.13.75l1.09.49a3.7,3.7,0,0,1,1.46,1.1,2.58,2.58,0,0,1,.48,1.56,2.43,2.43,0,0,1-.7,1.79,2.76,2.76,0,0,1-2.06.83,3.84,3.84,0,0,1-1.38-.27c-.3-.12-.49-.18-.55-.2a.78.78,0,0,0-.24,0,.6.6,0,0,0-.54.31Z"/><path class="cls-1" d="M350.84,90.91l-.1-.22a4.75,4.75,0,0,0,1.07-.59,2.75,2.75,0,0,0,.67-.79,3.62,3.62,0,0,0,.49-1.45,1.42,1.42,0,0,1-.48.1,1.33,1.33,0,0,1-.93-.34,1.12,1.12,0,0,1-.36-.87,1.21,1.21,0,0,1,.36-.88,1.16,1.16,0,0,1,.86-.38,1.19,1.19,0,0,1,1,.5,2.06,2.06,0,0,1,.39,1.31,3.59,3.59,0,0,1-.39,1.6,3.66,3.66,0,0,1-1,1.29A3.57,3.57,0,0,1,350.84,90.91Z"/><path class="cls-1" d="M362.17,87.79l0-4.26.23,0a9.34,9.34,0,0,0,1,2.56,3.28,3.28,0,0,0,2.82,1.72,2.62,2.62,0,0,0,2-.79,2.79,2.79,0,0,0,.77-2,3.67,3.67,0,0,0-.17-1.07,3.05,3.05,0,0,0-.46-.94,3.17,3.17,0,0,0-.84-.77,15.62,15.62,0,0,0-1.65-.94,14,14,0,0,1-1.5-.84,3.78,3.78,0,0,1-.84-.69,3.36,3.36,0,0,1-.89-2.36,4.1,4.1,0,0,1,.34-1.65,4,4,0,0,1,1-1.36,3.7,3.7,0,0,1,2.59-1,4.28,4.28,0,0,1,.9.1,6.51,6.51,0,0,1,1.1.39l.7.26a1,1,0,0,0,.33,0c.24,0,.4-.17.48-.52h.24l.07,4.09h-.23q-.29-1-.48-1.5a6.61,6.61,0,0,0-.48-1,3.69,3.69,0,0,0-1.12-1.19,2.49,2.49,0,0,0-1.39-.39,2.27,2.27,0,0,0-1.83.79,2.5,2.5,0,0,0-.43.75,2.43,2.43,0,0,0-.16.87c0,1.15.73,2.07,2.21,2.77l1.45.7a6.5,6.5,0,0,1,2.42,1.76,3.93,3.93,0,0,1,.84,2.5,4.36,4.36,0,0,1-.38,1.81,4,4,0,0,1-1.6,1.85,4.74,4.74,0,0,1-2.53.65,6.48,6.48,0,0,1-2.56-.52c-.42-.19-.68-.29-.76-.32a.79.79,0,0,0-.28,0,.68.68,0,0,0-.68.49Z"/><path class="cls-1" d="M375.19,85.51a1.23,1.23,0,0,1,.88.37,1.21,1.21,0,0,1,.36.89A1.25,1.25,0,0,1,375.19,88a1.26,1.26,0,0,1-1.25-1.25,1.19,1.19,0,0,1,.37-.89A1.2,1.2,0,0,1,375.19,85.51Z"/><path class="cls-1" d="M393.15,87.83h-6.78V87.6a3.18,3.18,0,0,0,1.28-.31,1.25,1.25,0,0,0,.64-1.12A3.06,3.06,0,0,0,388,85l-.17-.43-1-2.44H382.3l-.53,1.43-.26.64A5.09,5.09,0,0,0,381,86a1.44,1.44,0,0,0,.18.71,1.48,1.48,0,0,0,.45.54,2.24,2.24,0,0,0,1,.33v.23h-4.62V87.6a2.15,2.15,0,0,0,1-.27,2.73,2.73,0,0,0,.8-.77,5.81,5.81,0,0,0,.64-1.08c.21-.45.49-1.11.83-2l3.78-9.72h.58l4.49,10.84a17.49,17.49,0,0,0,.8,1.75,2.67,2.67,0,0,0,.65.79,1.8,1.8,0,0,0,.57.29,6.4,6.4,0,0,0,1,.17Zm-6.48-6.08-2.16-5.34-2,5.34Z"/><path class="cls-1" d="M396,85.51a1.24,1.24,0,0,1,.89.37,1.21,1.21,0,0,1,.36.89A1.25,1.25,0,0,1,396,88a1.18,1.18,0,0,1-.88-.37,1.19,1.19,0,0,1-.36-.88A1.25,1.25,0,0,1,396,85.51Z"/><path class="cls-1" d="M52.34,89.85V88.69a20.29,20.29,0,0,0,6.49-1.54,7.57,7.57,0,0,0,3.45-2.68,4.07,4.07,0,0,0,.36-1.4c.11-.68.19-1.47.26-2.38s.11-1.88.16-2.85,0-2,0-2.87c.06-2.5.08-5.09.08-7.74s0-5.3,0-7.65,0-4.55,0-6.38,0-3.22,0-4l-41.43.13.07,24.53c0,2.19,0,4.33.14,6.37a8.43,8.43,0,0,0,1,4.33,8,8,0,0,0,3.56,3,14.51,14.51,0,0,0,4.53,1.24v1.14L0,90V88.87a20.49,20.49,0,0,0,5-1.54,9.62,9.62,0,0,0,3.66-2.71,4.8,4.8,0,0,0,.68-1.88,28.83,28.83,0,0,0,.42-3c.09-1.14.18-2.37.25-3.71s.1-2.62.09-3.83,0-2.52,0-4.33.06-3.82.08-6,0-4.4,0-6.68,0-4.57,0-6.63l-.08-22.21V22.21A35.35,35.35,0,0,0,10,18.39a21.15,21.15,0,0,0-.48-3.18A5.11,5.11,0,0,0,8.57,13,8.25,8.25,0,0,0,5,10.2,19.1,19.1,0,0,0,.08,9V7.9l31.23-.12V8.92a27.74,27.74,0,0,0-3.14.69,9.23,9.23,0,0,0-3,1.45,7.54,7.54,0,0,0-2.31,2.68,9.86,9.86,0,0,0-1,4.33c-.05,2.68-.1,5.56-.12,8.63s0,6,0,8.84,0,5.17,0,7.3,0,3.47,0,4.23l41.44-.16c0-2.42,0-4.62,0-6.6s0-4,0-5.94,0-3.84,0-5.8-.05-4.24-.13-6.76c-.06-1.44-.16-2.94-.26-4.51a8.81,8.81,0,0,0-1-3.8,8,8,0,0,0-4.31-3.81,19.61,19.61,0,0,0-4.84-.85V7.69L84.07,7.6V8.74a15.77,15.77,0,0,0-4.94,1.56,7.8,7.8,0,0,0-3.55,3.47A7.47,7.47,0,0,0,75,16c-.14.93-.24,2-.32,3.18s-.09,2.37-.09,3.59,0,2.4,0,3.54l0,19.5c0,2.8,0,5.38,0,7.64s0,4.41,0,6.62,0,4.33.07,6.62,0,4.78.06,7.52c0,2.23.07,4.25.17,6.11a8.81,8.81,0,0,0,.81,3.81,7.21,7.21,0,0,0,3.67,3.18,19.85,19.85,0,0,0,5.06,1.24v1.14Z"/></g></g></svg>