<svg xmlns="http://www.w3.org/2000/svg" viewBox="0 0 409.94 94.43"><defs><style>.cls-1{fill:#fff;}.cls-2{fill:#f39200;}</style></defs><g id="Capa_2" data-name="Capa 2"><g id="Layer_1" data-name="Layer 1"><path class="cls-1" d="M377.48,25.67H355.07V23.29a11.26,11.26,0,1,0-8.69,0v2.38H324v8.7h19.91L328.7,63l9.74.11L350.78,39.8l12.37,23.35,9.49,0L357.71,34.37h19.77Z"/><path class="cls-2" d="M376,24H353.59V21.63a11.25,11.25,0,1,0-8.7,0V24h-22.4v8.69h19.89L327.16,61.44l9.79.07,12.36-23.37,12.37,23.37,9.48,0L356.22,32.71H376Z"/><path class="cls-1" d="M406.48,55.15a10.36,10.36,0,0,1-2.86,3.47,12.38,12.38,0,0,1-4.37,2.13,21.65,21.65,0,0,1-5.57.71,26.3,26.3,0,0,1-4.47-.31,16.53,16.53,0,0,1-3.07-.76,8.85,8.85,0,0,1-1.83-.82,2.51,2.51,0,0,0-.78-.36q-.16,0-.69.63c-.36.43-.67.85-.95,1.23h-.48l-.2-10.57h.49a17.32,17.32,0,0,0,1.24,2.79,22.49,22.49,0,0,0,1.63,2.54,14.16,14.16,0,0,0,1.87,2.09,9,9,0,0,0,1.9,1.38,16.2,16.2,0,0,0,2.39,1A10,10,0,0,0,400,58.54a7.35,7.35,0,0,0,2.43-5.82,6.7,6.7,0,0,0-.49-2.6,6.11,6.11,0,0,0-1.31-1.93,8.45,8.45,0,0,0-1.94-1.4,21.15,21.15,0,0,0-2.4-1c-.85-.32-1.59-.58-2.23-.79l-1.79-.61-1.7-.58c-.59-.19-1.29-.45-2.1-.76a11.42,11.42,0,0,1-2.67-1.45,11,11,0,0,1-2.24-2.18A11.49,11.49,0,0,1,382,36.63a8.68,8.68,0,0,1-.59-3.22,11,11,0,0,1,1-4.94A10,10,0,0,1,385.21,25,11.46,11.46,0,0,1,389.27,23a17.24,17.24,0,0,1,4.86-.68,18,18,0,0,1,4.09.38,17.81,17.81,0,0,1,2.78.87,9.37,9.37,0,0,1,1.64.87,4.72,4.72,0,0,0,.63.4c.1,0,.32-.21.65-.64s.64-.86.93-1.28h.58l0,9.81h-.58a21.47,21.47,0,0,0-1.65-3.47,15.07,15.07,0,0,0-2.36-3.07,11.21,11.21,0,0,0-3-2.2,8.18,8.18,0,0,0-3.76-.83,9.93,9.93,0,0,0-3.11.48,7.42,7.42,0,0,0-2.54,1.45,6.67,6.67,0,0,0-1.7,2.37,8.24,8.24,0,0,0-.59,3.21,6.12,6.12,0,0,0,1.71,4.5,12.17,12.17,0,0,0,4.42,2.7c.7.28,1.38.53,2,.73l1.83.61,1.84.6,1.95.69a12.32,12.32,0,0,1,5.61,3.83,9.85,9.85,0,0,1,2,6.29,9.74,9.74,0,0,1-1,4.56"/><path class="cls-1" d="M121.16,28a4.71,4.71,0,0,0-1.72,2.21,7.94,7.94,0,0,0-.27,1.18c-.08.55-.15,1.18-.22,1.89s-.11,1.48-.15,2.28,0,1.61,0,2.38c0,1.47-.07,3.12-.11,4.93s-.09,3.86-.16,6.14c0,.65-.07,1.46-.12,2.46a17.09,17.09,0,0,1-.48,3.16A13.71,13.71,0,0,1,116.6,58a10.26,10.26,0,0,1-2.53,3,12.16,12.16,0,0,1-4.19,2.16,21.72,21.72,0,0,1-6.29.82,22,22,0,0,1-6.24-.74,12.61,12.61,0,0,1-4.17-2.07,10.11,10.11,0,0,1-2.54-2.86,13.85,13.85,0,0,1-1.34-3.08,12.36,12.36,0,0,1-.53-2.75c0-.85-.07-1.46-.08-1.88,0-.95,0-2.2,0-3.74V41.72l0-6.82c0-.61,0-1.22,0-1.83a15.29,15.29,0,0,0-.08-1.72,11.07,11.07,0,0,0-.24-1.44,2.4,2.4,0,0,0-.45-1,4,4,0,0,0-1.78-1.25,10.14,10.14,0,0,0-2.39-.53v-.51L99,26.58v.5a14.13,14.13,0,0,0-1.54.32,4.75,4.75,0,0,0-1.49.65,3.74,3.74,0,0,0-1.13,1.2,4.27,4.27,0,0,0-.5,1.95c0,.88,0,1.67-.06,2.36s0,1.35,0,2V37.6c0,.68,0,1.49,0,2.41,0,1.16,0,2.21,0,3.13s0,1.8,0,2.62,0,1.54,0,2.26,0,1.52,0,2.34a16,16,0,0,0,.83,4.94,10.91,10.91,0,0,0,2.17,3.79,9.16,9.16,0,0,0,3.39,2.39,11.7,11.7,0,0,0,4.56.84,15.73,15.73,0,0,0,5-.68,9.88,9.88,0,0,0,3.38-1.86,9.25,9.25,0,0,0,2.15-2.73A13.4,13.4,0,0,0,117,53.78a23.63,23.63,0,0,0,.49-3.56q.12-1.83.12-3.57v-2.5c0-.76,0-1.46,0-2.11v-2c0-.69,0-1.39,0-2.11s0-1.38,0-2.1,0-1.4-.08-2-.09-1.27-.16-1.82a5.39,5.39,0,0,0-.31-1.36,4.83,4.83,0,0,0-1.78-2.33A8.91,8.91,0,0,0,111.46,27v-.5l12.7-.05V27a7.4,7.4,0,0,0-3,1"/><path class="cls-1" d="M156.34,63.28v-.56a8.34,8.34,0,0,0,3.68-.94,4.48,4.48,0,0,0,2-1.9,6,6,0,0,0,.46-1.67,19.46,19.46,0,0,0,.2-2c.06-2.25.08-4.4.08-6.45s0-4.18,0-6.36l-.05-14.49c-1.12,2.52-2.14,4.85-3.07,7s-1.86,4.2-2.77,6.21-1.84,4.08-2.77,6.19-2,4.43-3.09,7c-.16.35-.4.87-.71,1.63s-.61,1.48-.91,2.25-.59,1.47-.86,2.1-.45,1-.51,1.25h-.31c-1.09-2.52-2.19-5-3.28-7.51s-2.14-4.9-3.17-7.2-2-4.45-2.88-6.47-1.71-3.8-2.43-5.35-1.32-2.9-1.79-4-.78-1.77-1-2.14c0,2.26,0,4.24,0,6s0,3.44,0,5.13,0,3.48,0,5.36,0,4.06,0,6.55c0,1.6,0,3,.16,4.18a8.37,8.37,0,0,0,.77,3A4.47,4.47,0,0,0,136,61.84a10.1,10.1,0,0,0,3.46,1v.51l-13.38.05v-.52A8.79,8.79,0,0,0,129,61.79a4.93,4.93,0,0,0,1.79-1.91,9.78,9.78,0,0,0,1-3.05,32.8,32.8,0,0,0,.35-4.44c.06-1.46.11-3.19.13-5.2s.05-4.14,0-6.42c0-1,0-1.83,0-2.52V34.31c0-.69,0-1.53-.06-2.51a4.58,4.58,0,0,0-.63-2.32,4,4,0,0,0-1.34-1.41,5.22,5.22,0,0,0-1.63-.74c-.59-.16-1.08-.27-1.49-.34v-.5l10.91,0,12.33,27.82c1.49-3.25,3-6.47,4.37-9.69s2.7-6.13,3.85-8.72,2.06-4.77,2.79-6.49,1.14-2.73,1.24-3l10.9,0v.5a5.6,5.6,0,0,0-3.19.9,4.17,4.17,0,0,0-1.51,1.94,10.64,10.64,0,0,0-.4,2.73c-.06,1.23-.11,2.43-.14,3.62,0,1.64,0,3.24,0,4.78s0,3.08,0,4.65c0,1.85,0,3.7,0,5.54s0,3.72.05,5.74a14.73,14.73,0,0,0,.14,2,4.42,4.42,0,0,0,.43,1.57q.06.09.39.48a5.14,5.14,0,0,0,.95.81,6.31,6.31,0,0,0,1.54.77,7.51,7.51,0,0,0,2.15.38v.51Z"/><path class="cls-1" d="M198.27,63.14v-.51c.1,0,.34,0,.75-.09a5.79,5.79,0,0,0,1.22-.37,3.54,3.54,0,0,0,1.13-.73,1.52,1.52,0,0,0,.48-1.17,6.76,6.76,0,0,0-.29-1.52c-.18-.69-.45-1.54-.8-2.55s-.75-2.11-1.18-3.35-.94-2.5-1.45-3.84l-13.63.05c-.5,1.3-1,2.54-1.47,3.72s-.95,2.36-1.43,3.55a13.23,13.23,0,0,0-1.07,3.91,1.62,1.62,0,0,0,.43,1.09,3,3,0,0,0,1,.71,6.24,6.24,0,0,0,1.39.42c.49.08,1,.16,1.42.22v.51l-10.92,0v-.55a6,6,0,0,0,2.28-.74,5,5,0,0,0,1.09-.77,11.52,11.52,0,0,0,1.18-1.7,34.88,34.88,0,0,0,2-4c.71-1.6,1.51-3.42,2.39-5.49s1.79-4.15,2.72-6.32,1.86-4.37,2.78-6.57,1.78-4.26,2.59-6.19l-.52-1.12a8.83,8.83,0,0,0,1.67-1,9.28,9.28,0,0,0,1.3-1.18,10.08,10.08,0,0,0,.94-1.18,7.89,7.89,0,0,0,.58-.93h.41l3.05,8.07q1.46,3.81,2.77,7.35l2.55,6.82q1.24,3.3,2.48,6.53c.39,1,.74,1.93,1.07,2.63s.69,1.49,1.1,2.38a5.1,5.1,0,0,0,.48.71,5.52,5.52,0,0,0,.94,1.05,6.12,6.12,0,0,0,1.46.94,5.38,5.38,0,0,0,2,.46v.62Zm-6.81-31c-.19.45-.49,1.15-.89,2.11s-.87,2.12-1.44,3.49-1.22,2.91-1.91,4.64S185.77,46,185,48l12.75,0c-.58-1.54-1.17-3.06-1.77-4.6s-1.19-3-1.77-4.43-1.08-2.7-1.54-3.89l-1.17-2.89"/><path class="cls-1" d="M251.77,27.59a4.47,4.47,0,0,0-1.76,2.2,8.6,8.6,0,0,0-.46,2.85c-.06,1.38-.12,2.85-.19,4.43s-.11,3.21-.15,5.2-.07,4.15-.06,6.43c0,1,0,2,0,3.29s0,2.41,0,3.66,0,2.49,0,3.71,0,2.35,0,3.33a.39.39,0,0,1-.12.33.5.5,0,0,1-.4.14,1.44,1.44,0,0,1-.92-.52c-2.92-3.33-5.55-6.39-8-9.19l-6.87-8L226.57,38q-3.13-3.63-6.63-7.51L220,52.12c0,1.72.06,3.31.14,4.71A8.81,8.81,0,0,0,220.8,60a3.69,3.69,0,0,0,1.77,1.76,11,11,0,0,0,3.3.83v.51l-12.6,0v-.52a10.94,10.94,0,0,0,2.46-.65,4,4,0,0,0,1.93-1.62,7.08,7.08,0,0,0,.91-3.18c.14-1.4.24-3.08.3-5,.07-1.47.1-3.2.14-5.2s0-4.14,0-6.42V38c0-.65,0-1.28,0-1.89s0-1.25,0-1.91,0-1.51-.06-2.5a5.86,5.86,0,0,0-.72-2.44,4.94,4.94,0,0,0-1.34-1.48,5,5,0,0,0-1.66-.76,12.58,12.58,0,0,0-1.72-.32v-.52l10.4,0L248.29,54.5l0-17.43c0-1.37,0-2.67-.06-3.92a9,9,0,0,0-.49-2.95,4.59,4.59,0,0,0-1.8-2.31,9.15,9.15,0,0,0-3.78-1.25v-.52l12.7,0v.52a7.45,7.45,0,0,0-3,1"/><path class="cls-1" d="M258.75,63v-.5a10.38,10.38,0,0,0,2.39-.7A5.06,5.06,0,0,0,263,60.44a2.2,2.2,0,0,0,.38-.87,12.87,12.87,0,0,0,.2-1.34q.07-.78.09-1.62c0-.55,0-1.12,0-1.66s0-1.12,0-1.94,0-1.72,0-2.7,0-2,0-3,0-2,0-3l0-10V32.51c0-.61,0-1.18-.07-1.72s-.14-1-.23-1.44a2.69,2.69,0,0,0-.48-1,4,4,0,0,0-1.77-1.24,10,10,0,0,0-2.38-.54v-.51L274.13,26v.52a14.42,14.42,0,0,0-2.3.56,3.38,3.38,0,0,0-1.89,1.65,5.15,5.15,0,0,0-.49,2.2c0,.9,0,1.73-.05,2.52s0,1.7,0,2.53,0,1.69,0,2.54,0,1.74,0,2.67v2.91l0,11.58c0,1,0,2,.05,2.86a3.64,3.64,0,0,0,.48,1.94,3.7,3.7,0,0,0,1.94,1.34,10.51,10.51,0,0,0,2.42.56v.51Z"/><path class="cls-1" d="M314.75,35.54c-.29-.61-.61-1.25-1-1.92s-.75-1.28-1.14-1.86-.78-1.12-1.16-1.61a8.09,8.09,0,0,0-1-1.11,5.27,5.27,0,0,0-2.34-1.34,14.08,14.08,0,0,0-3.2-.38c-.65,0-1.21,0-1.69,0s-1,0-1.43,0h-3.38c0,.86,0,2,0,3.48s0,3,0,4.63,0,3.18,0,4.75,0,2.84,0,3.9l0,11.38c0,1,0,1.93.09,2.83a3.6,3.6,0,0,0,.49,1.92,3.8,3.8,0,0,0,2.18,1.54,25.9,25.9,0,0,0,2.54.6v.51l-16.65,0v-.51a13.5,13.5,0,0,0,2.56-.51,5.27,5.27,0,0,0,2.4-1.7,1.93,1.93,0,0,0,.38-.85,11.36,11.36,0,0,0,.19-1.34c.05-.49.09-1,.11-1.61s0-1.14,0-1.68,0-1.12,0-1.9,0-1.66.05-2.62,0-2,0-3,0-2,0-2.91l-.05-17H289.4l-1.42,0c-.5,0-1.06,0-1.71,0a12.32,12.32,0,0,0-3.21.46,6.24,6.24,0,0,0-2.3,1.45,6,6,0,0,0-1,1.08c-.36.48-.73,1-1.13,1.57a20.91,20.91,0,0,0-1.11,1.82,10.42,10.42,0,0,0-.84,1.9l-.46-.15,1.5-9.74c.78.17,1.5.3,2.18.41a24.85,24.85,0,0,0,2.89.19l3.49.07,3,0h2.91l3.45,0H299l3,0,3-.07,3.48,0a16.43,16.43,0,0,0,2.8-.28,21.49,21.49,0,0,0,2.27-.62l1.68,10Z"/><rect class="cls-1" x="89.19" y="68.77" width="320.75" height="1.61"/><path class="cls-1" d="M130,90.55h-7V90.3a3.27,3.27,0,0,0,1.33-.32,1.3,1.3,0,0,0,.65-1.15,3.23,3.23,0,0,0-.3-1.16l-.18-.45-1-2.51h-4.68l-.55,1.47-.27.66a5.24,5.24,0,0,0-.48,1.84,1.55,1.55,0,0,0,.18.73,1.4,1.4,0,0,0,.47.55,2.22,2.22,0,0,0,1.06.34v.25h-4.76V90.3a2.2,2.2,0,0,0,1-.27,2.9,2.9,0,0,0,.83-.79,5.71,5.71,0,0,0,.66-1.12c.22-.46.5-1.14.86-2.06l3.89-10h.6l4.63,11.17a19.16,19.16,0,0,0,.82,1.81,2.56,2.56,0,0,0,.68.81,1.77,1.77,0,0,0,.58.3,7,7,0,0,0,1,.17Zm-6.68-6.27-2.23-5.51L119,84.28Z"/><path class="cls-1" d="M138.29,90.91a5.85,5.85,0,0,1-.11-1.13,6.13,6.13,0,0,1-1.48.73,4.79,4.79,0,0,1-1.49.23,4.14,4.14,0,0,1-2.75-1,4,4,0,0,1-1.13-1.55,5.17,5.17,0,0,1-.39-2,5.47,5.47,0,0,1,.42-2.16,4.5,4.5,0,0,1,1.19-1.66,4.32,4.32,0,0,1,2.88-1,3.53,3.53,0,0,1,1.37.24,5.55,5.55,0,0,1,1.34.85V78.51a2.82,2.82,0,0,0-.38-1.66,1.5,1.5,0,0,0-1.28-.51v-.26l3.26-.41V88a2.86,2.86,0,0,0,.39,1.7,1.45,1.45,0,0,0,1.27.51v.27Zm-.15-5a15,15,0,0,0-.12-2.21,3,3,0,0,0-.46-1.21,2.14,2.14,0,0,0-.77-.65,2.19,2.19,0,0,0-1-.24,2.4,2.4,0,0,0-2,1.06,4.65,4.65,0,0,0-.78,1.52,5.91,5.91,0,0,0-.28,1.82,6,6,0,0,0,.26,1.79,5.1,5.1,0,0,0,.72,1.5,2.34,2.34,0,0,0,1.95,1.09,2.09,2.09,0,0,0,1.05-.28,2.16,2.16,0,0,0,.8-.76,3.59,3.59,0,0,0,.45-1.26A14.7,14.7,0,0,0,138.14,86Z"/><path class="cls-1" d="M145.56,81.35a8.64,8.64,0,0,1,.25,1.48,4.77,4.77,0,0,1,1.5-1.09,4,4,0,0,1,1.74-.39,2.7,2.7,0,0,1,1.67.51,5.23,5.23,0,0,1,.92,1.08,5.54,5.54,0,0,1,1.63-1.2,4,4,0,0,1,1.76-.39,3,3,0,0,1,2.07.7,2.28,2.28,0,0,1,.81,1.82v4.4a5.26,5.26,0,0,0,.08,1.06,1.25,1.25,0,0,0,.32.56,2.34,2.34,0,0,0,1.11.43v.23h-4.7v-.23a2.57,2.57,0,0,0,.91-.24,1.12,1.12,0,0,0,.45-.52,2,2,0,0,0,.16-.74,13.11,13.11,0,0,0,.05-1.42v-2a14.15,14.15,0,0,0-.07-1.72,2.75,2.75,0,0,0-.29-.93,1.79,1.79,0,0,0-1.71-.9,2.06,2.06,0,0,0-1.91,1,5.06,5.06,0,0,0-.52,2.61v2.85a5.26,5.26,0,0,0,.08,1.06,1.25,1.25,0,0,0,.32.56,2.25,2.25,0,0,0,1.11.43v.23h-4.7v-.23a2.57,2.57,0,0,0,.91-.24,1.12,1.12,0,0,0,.45-.52,2.45,2.45,0,0,0,.17-.74c0-.33,0-.8,0-1.42v-2a13.13,13.13,0,0,0-.09-1.82,2.37,2.37,0,0,0-.3-.94,1.61,1.61,0,0,0-.66-.6,2.08,2.08,0,0,0-1-.22,2.35,2.35,0,0,0-1.13.29,2.18,2.18,0,0,0-.84.78,2.87,2.87,0,0,0-.41,1,8.46,8.46,0,0,0-.12,1.58v2.72a4.48,4.48,0,0,0,.09,1.06,1,1,0,0,0,.33.56,2.16,2.16,0,0,0,1.09.43v.23h-4.7v-.23a2.7,2.7,0,0,0,.92-.24,1.05,1.05,0,0,0,.44-.52,2.45,2.45,0,0,0,.17-.74c0-.33,0-.8,0-1.42V84.78a13,13,0,0,0-.06-1.53,1.61,1.61,0,0,0-.23-.72,1.2,1.2,0,0,0-.44-.43,1.84,1.84,0,0,0-.73-.16v-.22Z"/><path class="cls-1" d="M160.59,81.74l3.06-.39v6.93a4.38,4.38,0,0,0,.09,1,1.09,1.09,0,0,0,.32.56,2.25,2.25,0,0,0,1.1.43v.23h-4.7v-.23a2.7,2.7,0,0,0,.92-.24,1.05,1.05,0,0,0,.44-.52,2.45,2.45,0,0,0,.17-.73c0-.33.05-.81.05-1.42V84.79a13.28,13.28,0,0,0-.06-1.53,1.57,1.57,0,0,0-.23-.71,1.13,1.13,0,0,0-.44-.43,2,2,0,0,0-.73-.16Zm2.21-4.2a.93.93,0,0,1-.68-.27.93.93,0,0,1,0-1.33.94.94,0,0,1,.68-.27,1,1,0,0,1,.69.27.9.9,0,0,1,.27.66.85.85,0,0,1-.27.67A.93.93,0,0,1,162.8,77.54Z"/><path class="cls-1" d="M169.31,81.35a5,5,0,0,1,.15,1.16v.17a4.3,4.3,0,0,1,3.14-1.33,3.49,3.49,0,0,1,2.18.64,2.11,2.11,0,0,1,.83,1.78v4.5a4.61,4.61,0,0,0,.08,1.06,1.11,1.11,0,0,0,.33.56,2.21,2.21,0,0,0,1.09.43v.23h-4.69v-.23a2.63,2.63,0,0,0,.91-.24,1.12,1.12,0,0,0,.45-.52,2.5,2.5,0,0,0,.16-.74c0-.33.05-.8.05-1.42V85.15a13.33,13.33,0,0,0-.08-1.69,2.13,2.13,0,0,0-.31-.88,1.57,1.57,0,0,0-.69-.57,2.37,2.37,0,0,0-1-.21,2.72,2.72,0,0,0-1.11.23,2.08,2.08,0,0,0-.81.64,2.31,2.31,0,0,0-.42,1,11.83,11.83,0,0,0-.1,1.78v2.86a4.48,4.48,0,0,0,.09,1.06,1,1,0,0,0,.33.56,2.21,2.21,0,0,0,1.09.43v.23h-4.7v-.23a2.64,2.64,0,0,0,.92-.24,1.05,1.05,0,0,0,.44-.52,2.17,2.17,0,0,0,.17-.73c0-.33.05-.81.05-1.42V84.79a13.28,13.28,0,0,0-.06-1.53,1.57,1.57,0,0,0-.23-.71,1.07,1.07,0,0,0-.44-.43,2,2,0,0,0-.73-.16v-.22Z"/><path class="cls-1" d="M178.28,81.74l3.06-.39v6.93a5.15,5.15,0,0,0,.08,1,1.18,1.18,0,0,0,.33.56,2.21,2.21,0,0,0,1.1.43v.23h-4.7v-.23a2.63,2.63,0,0,0,.91-.24,1,1,0,0,0,.45-.52,2.21,2.21,0,0,0,.16-.73,13.22,13.22,0,0,0,0-1.42V84.79c0-.72,0-1.23,0-1.53a1.85,1.85,0,0,0-.23-.71,1.2,1.2,0,0,0-.44-.43,2.09,2.09,0,0,0-.73-.16Zm2.21-4.2a.93.93,0,0,1-.69-.27.89.89,0,0,1-.27-.67.87.87,0,0,1,.28-.66,1,1,0,0,1,1.36,0,.87.87,0,0,1,.28.66.89.89,0,0,1-.27.67A.93.93,0,0,1,180.49,77.54Z"/><path class="cls-1" d="M184.71,90.55v-3h.16a5.92,5.92,0,0,0,.75,1.76,2.31,2.31,0,0,0,1.9,1.2,1.76,1.76,0,0,0,1.16-.4,1.58,1.58,0,0,0,.53-1.27,1.88,1.88,0,0,0-.38-1.16,2.34,2.34,0,0,0-.54-.49,10.58,10.58,0,0,0-1.08-.63,7.06,7.06,0,0,1-1.78-1.19,2.21,2.21,0,0,1-.64-1.57,2.33,2.33,0,0,1,.64-1.65,2.54,2.54,0,0,1,1.94-.79,2.6,2.6,0,0,1,1,.2l.36.15a.72.72,0,0,0,.3.07c.13,0,.26-.11.38-.32h.22l.11,2.41h-.22a5.11,5.11,0,0,0-.25-.82,2.27,2.27,0,0,0-.38-.59,2.4,2.4,0,0,0-.76-.63,1.76,1.76,0,0,0-.86-.23,1.35,1.35,0,0,0-1,.43,1.46,1.46,0,0,0-.42,1.06,1.39,1.39,0,0,0,.38.94,3.53,3.53,0,0,0,1.16.77l1.12.51A3.7,3.7,0,0,1,190,86.43a2.68,2.68,0,0,1,.5,1.61,2.51,2.51,0,0,1-.73,1.85,2.86,2.86,0,0,1-2.12.85,4,4,0,0,1-1.42-.28l-.57-.21-.24,0a.62.62,0,0,0-.57.32Z"/><path class="cls-1" d="M195,81.51h2.7v.41H195V88.1a2.63,2.63,0,0,0,.38,1.6,1.45,1.45,0,0,0,.53.41,1.71,1.71,0,0,0,.71.15,1.53,1.53,0,0,0,.8-.2,2.66,2.66,0,0,0,.69-.72l.16.14a2.19,2.19,0,0,1-1,1,3.67,3.67,0,0,1-1.58.31,2.86,2.86,0,0,1-1.83-.49,1.28,1.28,0,0,1-.4-.61,5.94,5.94,0,0,1-.1-1.28V81.92h-1.13v-.17a3.12,3.12,0,0,0,1.28-.86,4.62,4.62,0,0,0,.56-.79,5.52,5.52,0,0,0,.41-1l.11-.35H195Z"/><path class="cls-1" d="M201.44,83a3.12,3.12,0,0,1,.85-1,3.39,3.39,0,0,1,2-.63,1.62,1.62,0,0,1,1.05.31.86.86,0,0,1,.33.68.66.66,0,0,1-.2.49.68.68,0,0,1-.5.19.81.81,0,0,1-.63-.3l-.33-.36a1.25,1.25,0,0,0-.93-.41c-.48,0-.85.31-1.12.93a6.69,6.69,0,0,0-.41,2.6v2.79a5.1,5.1,0,0,0,.09,1.06,1.18,1.18,0,0,0,.33.56,2.21,2.21,0,0,0,1.09.43v.23H198.4v-.23a2.63,2.63,0,0,0,.91-.24,1.12,1.12,0,0,0,.45-.52,2.21,2.21,0,0,0,.16-.73c0-.33.05-.81.05-1.42V84.79a13.28,13.28,0,0,0-.06-1.53,1.57,1.57,0,0,0-.23-.71,1.11,1.11,0,0,0-.43-.43,2.1,2.1,0,0,0-.74-.16v-.22l2.74-.39A9.17,9.17,0,0,1,201.44,83Z"/><path class="cls-1" d="M215.6,89.51l.18.11A1.65,1.65,0,0,1,214,90.74a2.07,2.07,0,0,1-1.26-.38,2.64,2.64,0,0,1-.68-.85,6.32,6.32,0,0,1-1.07.84,3.23,3.23,0,0,1-1.61.39,2.83,2.83,0,0,1-1.86-.57,1.87,1.87,0,0,1-.68-1.52,2.06,2.06,0,0,1,.56-1.47,2.53,2.53,0,0,1,.73-.53,7.89,7.89,0,0,1,1.2-.4,13.38,13.38,0,0,0,1.37-.39,3,3,0,0,0,.74-.38,1.35,1.35,0,0,0,.47-.58,2.74,2.74,0,0,0,.12-.91,2.88,2.88,0,0,0-.46-1.82,1.52,1.52,0,0,0-.55-.42,1.56,1.56,0,0,0-.7-.16,1.34,1.34,0,0,0-.77.22,1.35,1.35,0,0,0-.51.62l-.27.61a.76.76,0,0,1-.76.5.84.84,0,0,1-.61-.24.8.8,0,0,1-.24-.6c0-.36.25-.66.76-.91a4.51,4.51,0,0,1,1-.31,5.58,5.58,0,0,1,1.2-.13,6.18,6.18,0,0,1,1.37.17,4.79,4.79,0,0,1,1.19.44,1.63,1.63,0,0,1,.86,1,4.41,4.41,0,0,1,.09,1.07V88a7.79,7.79,0,0,0,.08,1.36.85.85,0,0,0,.88.76.92.92,0,0,0,.51-.12A1.69,1.69,0,0,0,215.6,89.51Zm-3.51-4.18a7.36,7.36,0,0,1-1.27.84,11.4,11.4,0,0,0-1.07.62,4.3,4.3,0,0,0-.54.51,2.22,2.22,0,0,0-.49,1.44,1.73,1.73,0,0,0,.38,1.16,1.25,1.25,0,0,0,1,.45,1.64,1.64,0,0,0,1-.32,2,2,0,0,0,.7-.87,5,5,0,0,0,.33-2.06Z"/><path class="cls-1" d="M224.05,90.91a5.87,5.87,0,0,1-.1-1.13,6.51,6.51,0,0,1-1.48.73,4.91,4.91,0,0,1-1.5.23,4.14,4.14,0,0,1-2.75-1,4,4,0,0,1-1.13-1.55,5.17,5.17,0,0,1-.39-2,5.31,5.31,0,0,1,.43-2.16,4.23,4.23,0,0,1,4.06-2.68,3.53,3.53,0,0,1,1.37.24,5.37,5.37,0,0,1,1.34.85V78.51a2.82,2.82,0,0,0-.38-1.66,1.49,1.49,0,0,0-1.27-.51v-.26l3.26-.41V88a2.87,2.87,0,0,0,.38,1.7,1.45,1.45,0,0,0,1.27.51v.27Zm-.15-5a15,15,0,0,0-.12-2.21,3,3,0,0,0-.46-1.21,2.11,2.11,0,0,0-.76-.65,2.26,2.26,0,0,0-1-.24,2.41,2.41,0,0,0-1.95,1.06,4.85,4.85,0,0,0-.78,1.52,5.91,5.91,0,0,0-.28,1.82,6.35,6.35,0,0,0,.26,1.79,5.1,5.1,0,0,0,.72,1.5,2.34,2.34,0,0,0,1.95,1.09,2.07,2.07,0,0,0,1.05-.28,2.16,2.16,0,0,0,.8-.76,3.59,3.59,0,0,0,.45-1.26A14.7,14.7,0,0,0,223.9,86Z"/><path class="cls-1" d="M228.64,86.06A4.35,4.35,0,0,1,229.92,83a5,5,0,0,1,7.41,0,4.42,4.42,0,0,1,1.27,3.08,4.37,4.37,0,0,1-1.21,3,5.14,5.14,0,0,1-7.53,0,4.44,4.44,0,0,1-.9-1.42A4.37,4.37,0,0,1,228.64,86.06Zm1.94-.12a5.6,5.6,0,0,0,.83,3.13,2.68,2.68,0,0,0,2.28,1.43,2.15,2.15,0,0,0,1.12-.32,2.91,2.91,0,0,0,.93-.89,4.79,4.79,0,0,0,.67-1.49,6.32,6.32,0,0,0,.26-1.73,5.72,5.72,0,0,0-.28-1.76,5,5,0,0,0-.72-1.52,2.57,2.57,0,0,0-2.14-1.2,2.5,2.5,0,0,0-2.07,1.26A5.24,5.24,0,0,0,230.58,85.94Z"/><path class="cls-1" d="M243.13,83a3,3,0,0,1,.86-1,3.38,3.38,0,0,1,2-.63,1.6,1.6,0,0,1,1.05.31.86.86,0,0,1,.33.68.67.67,0,0,1-.7.68.82.82,0,0,1-.63-.3l-.33-.36a1.25,1.25,0,0,0-.92-.41c-.48,0-.86.31-1.13.93a6.72,6.72,0,0,0-.4,2.6v2.79a5.26,5.26,0,0,0,.08,1.06,1.18,1.18,0,0,0,.33.56,2.25,2.25,0,0,0,1.1.43v.23h-4.7v-.23a2.77,2.77,0,0,0,.92-.24,1.05,1.05,0,0,0,.44-.52,2.45,2.45,0,0,0,.17-.73c0-.33,0-.81,0-1.42V84.79c0-.72,0-1.23,0-1.53a1.57,1.57,0,0,0-.23-.71,1.13,1.13,0,0,0-.44-.43,2.09,2.09,0,0,0-.73-.16v-.22l2.73-.39A8.34,8.34,0,0,1,243.13,83Z"/><path class="cls-1" d="M257.3,89.51l.18.11a1.66,1.66,0,0,1-1.76,1.12,2,2,0,0,1-1.25-.38,2.64,2.64,0,0,1-.68-.85,6.28,6.28,0,0,1-1.08.84,3.19,3.19,0,0,1-1.6.39,2.83,2.83,0,0,1-1.86-.57,1.85,1.85,0,0,1-.69-1.52,2,2,0,0,1,.57-1.47,2.53,2.53,0,0,1,.73-.53,7.52,7.52,0,0,1,1.2-.4,13.38,13.38,0,0,0,1.37-.39,3,3,0,0,0,.74-.38,1.32,1.32,0,0,0,.46-.58,2.47,2.47,0,0,0,.13-.91,2.88,2.88,0,0,0-.47-1.82,1.37,1.37,0,0,0-.55-.42,1.52,1.52,0,0,0-.69-.16,1.39,1.39,0,0,0-.78.22,1.49,1.49,0,0,0-.51.62l-.26.61a.76.76,0,0,1-.77.5.81.81,0,0,1-.6-.24.77.77,0,0,1-.25-.6c0-.36.26-.66.77-.91a4.41,4.41,0,0,1,1-.31,5.58,5.58,0,0,1,1.2-.13,6.19,6.19,0,0,1,1.38.17,5,5,0,0,1,1.19.44,1.67,1.67,0,0,1,.86,1,4.41,4.41,0,0,1,.09,1.07V88a6.88,6.88,0,0,0,.08,1.36.84.84,0,0,0,.87.76,1,1,0,0,0,.52-.12A1.69,1.69,0,0,0,257.3,89.51Zm-3.52-4.18a6.91,6.91,0,0,1-1.26.84,11.4,11.4,0,0,0-1.07.62,3.26,3.26,0,0,0-.54.51,2.23,2.23,0,0,0-.5,1.44,1.73,1.73,0,0,0,.39,1.16,1.23,1.23,0,0,0,1,.45,1.66,1.66,0,0,0,1-.32,1.92,1.92,0,0,0,.69-.87,5,5,0,0,0,.33-2.06Z"/><path class="cls-1" d="M271.73,90.91a5.87,5.87,0,0,1-.1-1.13,6.51,6.51,0,0,1-1.48.73,4.86,4.86,0,0,1-1.5.23,4.14,4.14,0,0,1-2.75-1,4,4,0,0,1-1.13-1.55,5.17,5.17,0,0,1-.39-2A5.47,5.47,0,0,1,264.8,84,4.5,4.5,0,0,1,266,82.37a4.34,4.34,0,0,1,2.88-1,3.5,3.5,0,0,1,1.37.24,5.19,5.19,0,0,1,1.34.85V78.51a2.82,2.82,0,0,0-.38-1.66,1.49,1.49,0,0,0-1.27-.51v-.26l3.26-.41V88a2.94,2.94,0,0,0,.38,1.7,1.47,1.47,0,0,0,1.27.51v.27Zm-.15-5a15,15,0,0,0-.12-2.21,3,3,0,0,0-.46-1.21,2.19,2.19,0,0,0-.76-.65,2.26,2.26,0,0,0-1-.24,2.41,2.41,0,0,0-1.95,1.06,4.65,4.65,0,0,0-.78,1.52,5.91,5.91,0,0,0-.28,1.82,6.35,6.35,0,0,0,.26,1.79,5.1,5.1,0,0,0,.72,1.5,2.34,2.34,0,0,0,2,1.09,2.07,2.07,0,0,0,1-.28,2.16,2.16,0,0,0,.8-.76,3.59,3.59,0,0,0,.45-1.26A14.7,14.7,0,0,0,271.58,86Z"/><path class="cls-1" d="M278.22,84.77c0,.34-.05.59-.05.75a6.56,6.56,0,0,0,.27,1.81,4.45,4.45,0,0,0,.74,1.46,3.39,3.39,0,0,0,1.18.94,3.45,3.45,0,0,0,1.48.34,3.23,3.23,0,0,0,1.08-.19,2.22,2.22,0,0,0,.85-.54,2.8,2.8,0,0,0,.66-1.19l.23.08a3,3,0,0,1-1.19,1.87,4.07,4.07,0,0,1-2.41.64,5.48,5.48,0,0,1-2.25-.42,4,4,0,0,1-1.58-1.27,4.74,4.74,0,0,1-.9-3A4.51,4.51,0,0,1,278,82.34a4.4,4.4,0,0,1,2.83-1,3.94,3.94,0,0,1,1.58.31,3.18,3.18,0,0,1,2,3.11Zm4.63-.42a4.11,4.11,0,0,0-.39-1.64,2.31,2.31,0,0,0-.76-.82,1.89,1.89,0,0,0-1-.3,2.06,2.06,0,0,0-1.59.78,3.61,3.61,0,0,0-.81,2Z"/><path class="cls-1" d="M297.09,83.45v3.76a7.89,7.89,0,0,0,.12,1.61,1.91,1.91,0,0,0,.45.86,2,2,0,0,0,.67.45,3.48,3.48,0,0,0,1,.17v.25h-6.79V90.3a3.62,3.62,0,0,0,1-.17,1.85,1.85,0,0,0,.66-.45,1.68,1.68,0,0,0,.46-.85,7.94,7.94,0,0,0,.12-1.62V79.38a7.94,7.94,0,0,0-.12-1.62,1.76,1.76,0,0,0-.46-.86,1.67,1.67,0,0,0-.67-.44,3.44,3.44,0,0,0-1-.18V76h6.81a8.23,8.23,0,0,1,2.59.45,3.47,3.47,0,0,1,1.63,1.27,3.33,3.33,0,0,1,.57,2,3.2,3.2,0,0,1-1.25,2.65,3.49,3.49,0,0,1-.84.49,7.07,7.07,0,0,1-1.24.36,3.49,3.49,0,0,1,.95.56,2.32,2.32,0,0,1,.44.56,12.44,12.44,0,0,1,.61,1.18c.63,1.3,1.11,2.24,1.43,2.84a8.51,8.51,0,0,0,.81,1.3,1.64,1.64,0,0,0,.52.46,2,2,0,0,0,.68.17v.25h-3.53c-.17-.4-.29-.64-.34-.75l-.74-1.69a29.21,29.21,0,0,0-1.35-2.69A5.69,5.69,0,0,0,299,83.84a1.87,1.87,0,0,0-.62-.3,3.12,3.12,0,0,0-.81-.09Zm0-.24h.41a8.27,8.27,0,0,0,1.88-.15,2.38,2.38,0,0,0,1.07-.61,3.48,3.48,0,0,0,1.12-2.64,3.86,3.86,0,0,0-.33-1.58,3.13,3.13,0,0,0-.9-1.21,2.68,2.68,0,0,0-1.06-.51,8.57,8.57,0,0,0-1.75-.14h-.44Z"/><path class="cls-1" d="M307.06,81.74l3.05-.39v6.93a4.38,4.38,0,0,0,.09,1,1.18,1.18,0,0,0,.33.56,2.21,2.21,0,0,0,1.09.43v.23h-4.69v-.23a2.63,2.63,0,0,0,.91-.24,1.12,1.12,0,0,0,.45-.52,2.5,2.5,0,0,0,.16-.73c0-.33.05-.81.05-1.42V84.79a13.28,13.28,0,0,0-.06-1.53,1.57,1.57,0,0,0-.23-.71,1.07,1.07,0,0,0-.44-.43,2,2,0,0,0-.72-.16Zm2.21-4.2a.93.93,0,0,1-.69-.27.89.89,0,0,1-.27-.67.87.87,0,0,1,.28-.66,1,1,0,0,1,1.36,0,.87.87,0,0,1,.28.66.89.89,0,0,1-.27.67A1,1,0,0,1,309.27,77.54Z"/><path class="cls-1" d="M315,84.77c0,.34,0,.59,0,.75a6.2,6.2,0,0,0,.27,1.81,4.27,4.27,0,0,0,.74,1.46,3.3,3.3,0,0,0,1.18.94,3.44,3.44,0,0,0,1.47.34,3.29,3.29,0,0,0,1.09-.19,2.3,2.3,0,0,0,.85-.54,2.8,2.8,0,0,0,.66-1.19l.22.08a2.94,2.94,0,0,1-1.18,1.87,4.12,4.12,0,0,1-2.42.64,5.43,5.43,0,0,1-2.24-.42A3.91,3.91,0,0,1,314,89.05a4.8,4.8,0,0,1-.9-3,4.54,4.54,0,0,1,1.71-3.75,4.43,4.43,0,0,1,2.84-1,3.86,3.86,0,0,1,1.57.31,3.25,3.25,0,0,1,1.22.87,3.29,3.29,0,0,1,.78,2.24Zm4.64-.42a3.93,3.93,0,0,0-.4-1.64,2.22,2.22,0,0,0-.76-.82,1.86,1.86,0,0,0-1-.3,2.08,2.08,0,0,0-1.6.78,3.61,3.61,0,0,0-.81,2Z"/><path class="cls-1" d="M323.83,90.55v-3H324a5.92,5.92,0,0,0,.75,1.76,2.31,2.31,0,0,0,1.9,1.2,1.76,1.76,0,0,0,1.16-.4,1.58,1.58,0,0,0,.53-1.27,1.88,1.88,0,0,0-.38-1.16,2.34,2.34,0,0,0-.54-.49,10.58,10.58,0,0,0-1.08-.63,7.06,7.06,0,0,1-1.78-1.19,2.21,2.21,0,0,1-.64-1.57,2.33,2.33,0,0,1,.64-1.65,2.54,2.54,0,0,1,1.94-.79,2.6,2.6,0,0,1,1,.2l.36.15a.72.72,0,0,0,.3.07c.13,0,.26-.11.38-.32h.22l.11,2.41h-.22a5.11,5.11,0,0,0-.25-.82,2.56,2.56,0,0,0-.38-.59,2.4,2.4,0,0,0-.76-.63,1.76,1.76,0,0,0-.86-.23,1.35,1.35,0,0,0-1,.43,1.46,1.46,0,0,0-.42,1.06,1.39,1.39,0,0,0,.38.94,3.43,3.43,0,0,0,1.16.77l1.12.51a3.64,3.64,0,0,1,1.51,1.13,2.68,2.68,0,0,1,.5,1.61,2.51,2.51,0,0,1-.73,1.85,2.86,2.86,0,0,1-2.12.85,4,4,0,0,1-1.42-.28l-.57-.21-.24,0a.62.62,0,0,0-.57.32Z"/><path class="cls-1" d="M334,91.45l-.19,0a1.38,1.38,0,0,0-.37-.41A.78.78,0,0,0,333,91a.93.93,0,0,0-.73.34,1.33,1.33,0,0,0-.28.88,1.63,1.63,0,0,0,.86,1.42,4,4,0,0,0,2.2.55,4,4,0,0,0,2.3-.61,1.87,1.87,0,0,0,.87-1.59,1.39,1.39,0,0,0-.58-1.21,2.84,2.84,0,0,0-1.67-.42h-1.69a2.68,2.68,0,0,1-1.68-.49,1.51,1.51,0,0,1-.66-1.22,1.36,1.36,0,0,1,.7-1.2A6.26,6.26,0,0,1,334,87a3.6,3.6,0,0,1-1.43-1.11,2.56,2.56,0,0,1-.51-1.54,2.67,2.67,0,0,1,.8-1.91,3.27,3.27,0,0,1,1.1-.77,3.35,3.35,0,0,1,1.31-.28,3.73,3.73,0,0,1,2.08.73,3.8,3.8,0,0,1,.91-.56,2.2,2.2,0,0,1,.86-.17,1.47,1.47,0,0,1,.85.23.82.82,0,0,1,.38.68.59.59,0,0,1-.15.41.49.49,0,0,1-.38.16.78.78,0,0,1-.62-.36l-.24-.32a.7.7,0,0,0-.58-.25,1.26,1.26,0,0,0-.82.39,3.41,3.41,0,0,1,.86,2.17,2.51,2.51,0,0,1-1.23,2.2,3.66,3.66,0,0,1-1.33.54l-1.36.1c-1,.07-1.56.36-1.56.88s.44.68,1.33.68H336a6.34,6.34,0,0,1,1.56.16,3.12,3.12,0,0,1,1.12.52,2.28,2.28,0,0,1,.94,1.94,2.52,2.52,0,0,1-1.09,2.16,5.63,5.63,0,0,1-3.28.79A4.7,4.7,0,0,1,332,93.5a2.07,2.07,0,0,1-.61-1.51,1.75,1.75,0,0,1,.45-1.21,1.51,1.51,0,0,1,1.12-.49,1.09,1.09,0,0,1,.78.29,1,1,0,0,1,.31.75Zm-.46-7.06a3.29,3.29,0,0,0,.48,1.86,1.42,1.42,0,0,0,1.23.73,1.32,1.32,0,0,0,1.19-.72,4,4,0,0,0,.43-2,3.63,3.63,0,0,0-.55-2.1,1.24,1.24,0,0,0-1.05-.58,1.41,1.41,0,0,0-1.23.76,4,4,0,0,0-.37.93A4.67,4.67,0,0,0,333.54,84.39Z"/><path class="cls-1" d="M341.2,86.06A4.35,4.35,0,0,1,342.48,83a5,5,0,0,1,7.4,0A4.37,4.37,0,0,1,350,89.1a5.15,5.15,0,0,1-7.54,0,4.62,4.62,0,0,1-.9-1.42A4.57,4.57,0,0,1,341.2,86.06Zm1.93-.12a5.6,5.6,0,0,0,.84,3.13,2.68,2.68,0,0,0,2.28,1.43,2.09,2.09,0,0,0,1.11-.32,2.84,2.84,0,0,0,.94-.89A4.79,4.79,0,0,0,349,87.8a6.32,6.32,0,0,0,.26-1.73,6,6,0,0,0-.28-1.76,5,5,0,0,0-.73-1.52,2.57,2.57,0,0,0-2.13-1.2A2.5,2.5,0,0,0,344,82.85,5.24,5.24,0,0,0,343.13,85.94Z"/><path class="cls-1" d="M353.38,90.55v-3h.17a5.92,5.92,0,0,0,.75,1.76,2.31,2.31,0,0,0,1.9,1.2,1.76,1.76,0,0,0,1.16-.4,1.58,1.58,0,0,0,.53-1.27,1.88,1.88,0,0,0-.38-1.16,2.34,2.34,0,0,0-.54-.49,11.85,11.85,0,0,0-1.08-.63,7.06,7.06,0,0,1-1.78-1.19,2.21,2.21,0,0,1-.64-1.57,2.33,2.33,0,0,1,.64-1.65,2.54,2.54,0,0,1,1.94-.79,2.6,2.6,0,0,1,1,.2l.36.15a.76.76,0,0,0,.3.07c.13,0,.26-.11.38-.32h.22l.11,2.41h-.22A5.11,5.11,0,0,0,358,83a2.56,2.56,0,0,0-.38-.59,2.4,2.4,0,0,0-.76-.63,1.76,1.76,0,0,0-.86-.23,1.35,1.35,0,0,0-1,.43,1.46,1.46,0,0,0-.42,1.06,1.39,1.39,0,0,0,.38.94,3.53,3.53,0,0,0,1.16.77l1.12.51a3.7,3.7,0,0,1,1.51,1.13,2.68,2.68,0,0,1,.5,1.61,2.55,2.55,0,0,1-.73,1.85,2.86,2.86,0,0,1-2.12.85,4,4,0,0,1-1.42-.28l-.57-.21-.24,0a.62.62,0,0,0-.57.32Z"/><path class="cls-1" d="M361.66,93.72l-.09-.23a4.36,4.36,0,0,0,1.09-.61,2.74,2.74,0,0,0,.69-.81,3.58,3.58,0,0,0,.51-1.49,1.66,1.66,0,0,1-.5.09,1.35,1.35,0,0,1-.95-.34,1.16,1.16,0,0,1-.37-.9,1.23,1.23,0,0,1,.37-.91,1.18,1.18,0,0,1,.89-.39,1.23,1.23,0,0,1,1,.51,2.22,2.22,0,0,1,.39,1.36,3.76,3.76,0,0,1-.39,1.64A3.92,3.92,0,0,1,363.27,93,3.78,3.78,0,0,1,361.66,93.72Z"/><path class="cls-1" d="M373.35,90.5l0-4.39h.24a9.55,9.55,0,0,0,1.06,2.64,3.41,3.41,0,0,0,2.92,1.79,2.71,2.71,0,0,0,2-.82,2.83,2.83,0,0,0,.8-2.07,3.63,3.63,0,0,0-.18-1.11,3,3,0,0,0-.47-1,3.51,3.51,0,0,0-.86-.79,14.92,14.92,0,0,0-1.71-1,17,17,0,0,1-1.54-.86,4.36,4.36,0,0,1-.87-.71,3.49,3.49,0,0,1-.92-2.44,4.27,4.27,0,0,1,1.35-3.1,3.83,3.83,0,0,1,2.67-1,3.9,3.9,0,0,1,.93.1,8,8,0,0,1,1.13.4l.72.27a1.22,1.22,0,0,0,.35.06c.24,0,.41-.18.5-.54h.24l.08,4.21h-.25c-.19-.67-.35-1.19-.49-1.54a6.22,6.22,0,0,0-.5-1,3.76,3.76,0,0,0-1.14-1.22A2.61,2.61,0,0,0,378,76a2.32,2.32,0,0,0-1.87.81,2.81,2.81,0,0,0-.46.77,2.85,2.85,0,0,0-.16.9c0,1.18.76,2.13,2.28,2.86l1.5.72a6.71,6.71,0,0,1,2.49,1.81,4,4,0,0,1,.87,2.57,4.58,4.58,0,0,1-.39,1.87,4.14,4.14,0,0,1-1.66,1.91,4.89,4.89,0,0,1-2.6.68,6.51,6.51,0,0,1-2.64-.55c-.43-.19-.7-.29-.78-.32a.88.88,0,0,0-.29-.05.7.7,0,0,0-.7.51Z"/><path class="cls-1" d="M386.77,88.15a1.3,1.3,0,0,1,1.28,1.3,1.2,1.2,0,0,1-.38.91,1.29,1.29,0,0,1-2.19-.91,1.26,1.26,0,0,1,.38-.92A1.24,1.24,0,0,1,386.77,88.15Z"/><path class="cls-1" d="M405.28,90.55h-7V90.3a3.21,3.21,0,0,0,1.32-.32,1.29,1.29,0,0,0,.66-1.15,3.46,3.46,0,0,0-.3-1.16l-.18-.45-1-2.51H394.1l-.55,1.47-.26.66a5.24,5.24,0,0,0-.48,1.84,1.54,1.54,0,0,0,.17.73,1.58,1.58,0,0,0,.47.55,2.26,2.26,0,0,0,1.07.34v.25h-4.77V90.3a2.28,2.28,0,0,0,1-.27,3,3,0,0,0,.82-.79,6.24,6.24,0,0,0,.67-1.12c.21-.46.5-1.14.86-2.06L397,76h.61l4.62,11.17A18.62,18.62,0,0,0,403,89a2.68,2.68,0,0,0,.67.81,1.88,1.88,0,0,0,.58.3,7,7,0,0,0,1,.17Zm-6.67-6.27-2.23-5.51-2.1,5.51Z"/><path class="cls-1" d="M408.26,88.15a1.3,1.3,0,0,1,1.28,1.3,1.2,1.2,0,0,1-.38.91,1.29,1.29,0,0,1-2.19-.91,1.26,1.26,0,0,1,.38-.92A1.24,1.24,0,0,1,408.26,88.15Z"/><path class="cls-1" d="M54,92.62V91.43a20.81,20.81,0,0,0,6.69-1.59,7.65,7.65,0,0,0,3.56-2.77,4.05,4.05,0,0,0,.38-1.44c.1-.7.19-1.52.27-2.44s.11-2,.16-3,0-2,0-2.95c.06-2.58.08-5.25.08-8s0-5.45,0-7.88,0-4.69,0-6.58,0-3.32,0-4.1l-42.71.13.07,25.29c0,2.26,0,4.46.14,6.57a8.83,8.83,0,0,0,1,4.47,8.32,8.32,0,0,0,3.67,3,14.87,14.87,0,0,0,4.67,1.28v1.17L0,92.8V91.61A21.34,21.34,0,0,0,5.19,90,10,10,0,0,0,9,87.24a5.11,5.11,0,0,0,.7-1.95c.18-.9.31-1.94.43-3.12s.18-2.44.26-3.83.11-2.69.09-3.94,0-2.59,0-4.46.06-3.94.09-6.18,0-4.54,0-6.89,0-4.71,0-6.83l-.07-22.9c0-1.42,0-2.83,0-4.24A37.41,37.41,0,0,0,10.31,19a21,21,0,0,0-.5-3.28,5.27,5.27,0,0,0-1-2.3A8.57,8.57,0,0,0,5.1,10.52a19.75,19.75,0,0,0-5-1.21V8.14L32.27,8V9.2A27.22,27.22,0,0,0,29,9.91a9.19,9.19,0,0,0-3.12,1.49,7.56,7.56,0,0,0-2.38,2.77,9.94,9.94,0,0,0-1.07,4.46c-.06,2.76-.11,5.72-.14,8.9s0,6.21,0,9.11,0,5.33,0,7.53,0,3.58,0,4.35l42.72-.16c0-2.49,0-4.76,0-6.81s0-4.15,0-6.11v-6c0-2.06-.05-4.36-.14-7-.06-1.49-.17-3-.27-4.65a9.15,9.15,0,0,0-1-3.92c-1.32-2.11-2.8-3.45-4.45-3.93a19.89,19.89,0,0,0-5-.87V7.93l32.53-.09V9a16.15,16.15,0,0,0-5.08,1.61,8,8,0,0,0-3.67,3.57,7.85,7.85,0,0,0-.64,2.33c-.14,1-.25,2.06-.32,3.29s-.1,2.44-.1,3.7,0,2.47,0,3.64l.06,20.11c0,2.89,0,5.54,0,7.87s0,4.55,0,6.83,0,4.46.08,6.82,0,4.93.06,7.75c0,2.3.07,4.39.18,6.3a9.13,9.13,0,0,0,.83,3.93A7.39,7.39,0,0,0,81.91,90a20.58,20.58,0,0,0,5.22,1.29v1.17Z"/></g></g></svg>